/* XPM */
static char *de654007c48f4c22d77f93c1d2619652LMGFs8oxIdPY1G6w[] = {
/* columns rows colors chars-per-pixel */
"80 60 138 2 ",
"   c black",
".  c #010101",
"X  c #020202",
"o  c #000101",
"O  c #000001",
"+  c #020203",
"@  c #030304",
"#  c #010102",
"$  c #4B4D4F",
"%  c gray1",
"&  c #010202",
"*  c #141415",
"=  c #090909",
"-  c gray6",
";  c #020303",
":  c #040404",
">  c #010203",
",  c #020304",
"<  c #010204",
"1  c #000102",
"2  c #040405",
"3  c #393B3D",
"4  c #0B0E11",
"5  c #000204",
"6  c #010407",
"7  c #01060B",
"8  c #000305",
"9  c #0C1117",
"0  c #000103",
"q  c #000203",
"w  c #000408",
"e  c gray2",
"r  c #000306",
"t  c #01060C",
"y  c #010B14",
"u  c #020407",
"i  c #020406",
"p  c #020508",
"a  c #010810",
"s  c #01070D",
"d  c #010305",
"f  c #02070D",
"g  c #292A2B",
"h  c #010408",
"j  c #02090F",
"k  c #010509",
"l  c #010306",
"z  c #010304",
"x  c #191A1A",
"c  c #02080D",
"v  c #030D17",
"b  c #02060A",
"n  c #030508",
"m  c #070808",
"M  c #3F4244",
"N  c #191919",
"B  c #191A1B",
"V  c #020911",
"C  c #03080F",
"Z  c #03070C",
"A  c #02060B",
"S  c #030609",
"D  c #000205",
"F  c #03070A",
"G  c #01070E",
"H  c #050C14",
"J  c #030405",
"K  c #060708",
"L  c #020509",
"P  c #04080C",
"I  c #03080D",
"U  c #040505",
"Y  c #010205",
"T  c #01050A",
"R  c #000409",
"E  c #010508",
"W  c #000407",
"Q  c #020507",
"!  c #040609",
"~  c gray9",
"^  c #3B3E40",
"/  c #161617",
"(  c #26292B",
")  c #090A0A",
"_  c #020306",
"`  c #030406",
"'  c #131415",
"]  c #676C6F",
"[  c #3F4345",
"{  c #202122",
"}  c #222425",
"|  c #070708",
" . c #010409",
".. c #000206",
"X. c #000307",
"o. c #020405",
"O. c #04060A",
"+. c #010406",
"@. c #040507",
"#. c gray3",
"$. c #0D1012",
"%. c #00050A",
"&. c #090B0E",
"*. c #111112",
"=. c #05080C",
"-. c #3A3C3D",
";. c #050606",
":. c #03060A",
">. c #02050A",
",. c #040709",
"<. c #020506",
"1. c #020305",
"2. c #000304",
"3. c #030507",
"4. c #03080C",
"5. c #09090A",
"6. c #36393B",
"7. c #111316",
"8. c #05080A",
"9. c #02070C",
"0. c #1F2223",
"q. c #03090E",
"w. c #06090C",
"e. c #0A0C0E",
"r. c #06090B",
"t. c #050608",
"y. c #010103",
"u. c #000509",
"i. c #080909",
"p. c #575A5D",
"a. c #1B1C1D",
"s. c #151515",
"d. c #1B1D1E",
"f. c #292B2D",
"g. c #0F1011",
"h. c #030404",
"j. c #0B0B0B",
"k. c #36383A",
/* pixels */
"        . .     .               .                       . X   .       .   o                   X       .   .     .                     .   O       X . .         ",
"    X O                         +   O   X         . .   .     X               .       . O     .       X       @             .   . .       .   .   .   . O .   . ",
"  #                                   O     .     .         O   .   .       . $ X       O . . .           %       &       o       * X .   .                   . ",
"    = -       o   . .         .   X         %             o                   .                 . .               o         . o           . & o   .           . ",
"          .     # .                 .           o       .       . . . . . .         X             o     . X .     X   .       .     . .         .   O   ; X   . ",
". .           . .       X .         #         %   &       . &       X     + .         .               o     O . .     X X             . .               X   .   ",
".     o .   .           .   .         X o       .           X @         .       . X       . #       . %     O       &   o   . . .       o : . >   . ,   .   &   ",
"        #     &     #     .     %     . X       o .   .   .         . .   .         .     .     . o   .     #   . . X         .               < 1 o O .         ",
"      .     2 3   . .   .   & # = .   . X             . . .     .     X   #     .   .               .           o       . . .     . o 4 5 .   1 6 7 > &         ",
". o . .           .   .     . X O                 . . .             .     .     %     X             X                       O .   8 6 9 0 q   o 5 w 1 #         ",
"                              O   %     .             X                 X         . e     X   .   .     . . .     .               r t y o o o u i > >           ",
"      .   .       .           . . X         X     . X %   .                   .   . %       O .   . . .   # &       X   .   .   5 p a s r o d u f d o   g . .   ",
"X                       .         .             . . .             .   .         .   .                   X                     # 1 h j k l o z , d 1 5   x       ",
"          . #                       .                   %       . O O                 .       o         . &           . .     X d c v h > O d b 6 n < .   . X   ",
"      X .     .         X     X   .   m @       . X ; M o     .     . .     . O       o 2               N .   X   o o .         1 q 7 f d z z d l > o       X % ",
"O .       . . o     #       X     O         .   . . . B   .       . .     .   . .                       X         o         o   , < V C z < i d O . O .     O . ",
"          %     & X             .           .   .   . o   # .       .   .   : .       X +           . O             .       o # 1 d Z A S q ; < D 1   X &     X ",
"o   .       .   . X           . .                     .             . . . .   X . . o o   O . .         .       . . .     O > > F A 7 G u 1 & z r #       .   o ",
". .   .   X X           .         .                   .                       % .       .     X .       . .           o . 1 d 6 p H b b < z J K 5   .           ",
"  . . .     .               O O .     .                     . .   X               . . .   .           .   O .             > L p P I 5 5 & < 0 <     X           ",
"  % X .     . o U               . .         :             .             .       .       . . .                     .   O r z 6 < Y l d l 0 1 0 1 1 O     X     . ",
"X # . o     . .           . .             . X       +           .           .           . & % .     . .   X       . o < < T l d R l q > 0 0 5               O O ",
"    . .               X           %     &     O     O         .         .                 o               O     & 1 w E Y d i d > 5 q # 0 0 z ; >   X           ",
"  .         . .     .   .       . o .   . &                 &           .   .     . X               .       &   d W D z Q 5 o q 1 1 o O ! < q       . .     .   ",
"            &     .     . . . . % ~   .     O   ;     X o   . .         & .   #     X . .   X         . & e ^ l 5 5 > 5 < 8 5 > q o > , q 1         X   . &     ",
"    X     e /   .   ;         . . .       .       & .   o .         .   ( )   X           O     . . X   o q 8 1 _ w i z 1 q ` 8 1 O 0 q 1 ,   . .               ",
"  X       X   %         o o   .     .           @ .             .   & ' ] [ % .             . O   X 1 r 0 r D R D 0 q 1 5 0 0 o 0 q > q > o X {               . ",
".       .     o     X   X       . . .         .           .   X .       } | . .   #           o q   w l  ...p X.0 q 5 5 0 q 1 1 o > > q       . O X     .       ",
"          % .   #         .             .     .     # o           O X o       .     O 1 5 i q D R W r X.w D w D D 5 D q > # 1   1 o o.1 .             .   .     ",
".       . . .             o         .       % .         .                     o   o # O O.r D < X.r r w 5 5 5 6 D D i o O 1 1 0 1 > > O . X &         . X   .   ",
".     o   . .       % .       X   .   #     o       #     . . :   X X       . . + T 6 +.r 5 R 6 o 1 w @.l R D X.5 1 5 o < 5 ; 1 > >   o     .   o   .           ",
"  .                   #       .               .               #.  .       .   O $.i r 1 w r 8 q 0 0 q %.r r q > D 1 1 # q 8 # 1 5     .           .         .   ",
"  .                             .       #   % @     .             X     . > > . # 8 r 5 < 8 # l > X.0 5 5 u 1 O &.5 l d # # 1 > o .   X .           . X . o     ",
".   &   . .     *..         X   .         . . .             X           . z o d < b q > k 7 5 D 1 d 5 5 r h 0 r =.r q o # #     . .         .     .             ",
"            .   -.;.. .   #                 . .     . #       .   % ; o # > d :.Q E 6 L 6 >.+.D > q q r 1 6 5 l ..5 5 O 1               ;             . .       ",
".                     .     .   &   .       . .     .   .       ; , ,., <.+.0 p 0 i 0 w d , h d  .1 5 r d r q 1.1 q # .     . .         .       .   :   X   X . ",
"      X O   %     O             o         z d , o o # &   O . > o 1 ! d i r o D d # 0 O 0 1 5 1 2.d 5 h q < 0 > 1             .   &   @ .           .   . .     ",
"          . . .   .   & X +       O     . o.> # + 3.o.& # o d 4.L u < n h D < 8 1 1 , & 5 d d D 1 5 1 < < 5 , > o   O     .     5.6.%   .   . O .     +     .   ",
"      ;     & .           .   q O 7.q > > # < p 3.@.< n 8.< > u +.+.9.h 6 D 0 D r r q q 0 D q q o > q < 1 1 O           . .     & 0.    .       o               ",
"  .   O o . 2 X       . X     1 5 5 r > 0 o > o.# ! d i o.p b q.:.< l l 5 w 1 D 1 l W 0 l 5 0 > ; 8 O o             .   .     .   .     . . X     .     X     . ",
"            .   .   .     . 0 1 d D 1 1 5 1.<   1 1 q q w.:.p z L 1 8 q e.D o 1 . # # q O 1 0 O O   O #   .           . .                 .       .     X .     ",
"        . o     .         , r.q r 5 l 5 q q # 1 z W 5 9.d i q 1 1 o o O t.1 1 1 o q o # 1 o O     # &     .                   .       X   .   .           .     ",
"        .           . . O 0 9.r q D h < o.q # < r %.5 8 D y.< 5 & & o 1 o # O o O       X o       .   .       .       X         . .   X     %         .         ",
"      . .     .         o 1 < w 1 o 0 > o o r < u.h 0 q o.1 1 o o 1 O 1 O O o .   o         O .   o   . .     .         O X     X .       #     .         .     ",
". .     &     X       # & 5 %.; 1.O   . 1 J 6 8 q 1 o > 1 1 o .                   . . .     o   X .   .                   . o O     .       o       O .   . . X ",
"            . o   .     O q 0 1 O .   . 1 0 q 6 1 o @ > o & O .   o . . . o       . .         .   .             ; o . X   . .     o     .       . .             ",
"              . .     X .   1 o         O 5 6 O 0 o o   i.p.            %     .       o   .     .     .                 .         X o     . ~ X .           .   ",
"        ; . .       . . .   .         X # 5 > q o .   & . &     X # X .               .   .                 .                     .         %               . . ",
".   O #             .       . . e #     #       o . .   . . %             .         - X                           # a.        O     .           . .   . . & .   ",
"    X . O       X .                 .     #                 . .     . X             . X     X X   . X   X .         .                 X             &       .   ",
"              .       .             . &           . O .   X         . o   . . .       .     = :       X .             .     O X                   .   .         ",
"                    O .   . . X                               .     X .   . . % # .   . . .         . .       .     . . . # .   &             X   . o . . . O O ",
"          . s.%   .   .     . .     . .         O             .     .     & .         .     X             X                           . X .   +       . .       ",
"            %             d.f..     o & O     . O   .   . .                             . .         .           .               o         o   .     X     X     ",
"            .   . # &   . i.g.  h.        %           .       %     . X     . . . .                     .   .     j.                        . . . .         .   ",
"  o       . .   X .     O .     .           .         .   . &     .           ;       X   . . .             .   . j.                X   :       %           .   ",
"                #   .           . O . .         . .   .     .     &   X   . .   o   . $     . . . . X         .   +         .                   . O   .   & . . ",
"    X         .       .     .   X           .   2           .   . .             o   .   .   . . .                 o .   .   O         X       #       g.k.  .   ",
"      &   . . .           .     . . .       o o               h.X         .             X               .             . .     # X .       . .     X     +       ",
"        . .     .           X       .           #   . .     . X           .     .             O             .                 %           X U . . .     O     . "
};
