/* XPM */
static char *_60c3c399d474d3e916ea7beb0710a4bMwuIhyanSTm4w5ah[] = {
/* columns rows colors chars-per-pixel */
"64 60 240 2 ",
"   c gray7",
".  c black",
"X  c #010402",
"o  c #021103",
"O  c #021104",
"+  c #020C03",
"@  c #062C08",
"#  c #04A911",
"$  c #03A911",
"%  c #03A910",
"&  c #097510",
"*  c #000001",
"=  c #030503",
"-  c #09320C",
";  c #0A520F",
":  c #01B211",
">  c #00B210",
",  c #078A11",
"<  c #08320C",
"1  c #071908",
"2  c #010002",
"3  c #010001",
"4  c #071107",
"5  c #03B311",
"6  c #01B210",
"7  c #02B210",
"8  c #065A0D",
"9  c #020203",
"0  c #05420B",
"q  c #07550E",
"w  c #03B310",
"e  c #067F10",
"r  c #044D0A",
"t  c #061407",
"y  c #020102",
"u  c #039710",
"i  c #072B0A",
"p  c #010102",
"a  c #05AA12",
"s  c #06460B",
"d  c #05450B",
"f  c #05460B",
"g  c #05780F",
"h  c #04A312",
"j  c #06450B",
"k  c #067C0F",
"l  c #030103",
"z  c #049811",
"x  c #08A515",
"c  c #020103",
"v  c #06530E",
"b  c #079913",
"n  c #030102",
"m  c #020101",
"M  c #065B0D",
"N  c #072B09",
"B  c #010103",
"V  c #08610E",
"C  c #069410",
"Z  c #09330D",
"A  c #072008",
"S  c #010101",
"D  c #041006",
"F  c #052208",
"G  c #098012",
"H  c #04A510",
"J  c #08310B",
"K  c #061D09",
"L  c #061206",
"P  c #0A7A12",
"I  c #098E12",
"U  c #041306",
"Y  c #05740F",
"T  c #051C08",
"R  c gray3",
"E  c gray2",
"W  c #077510",
"Q  c #04A211",
"!  c #041305",
"~  c #040404",
"^  c #048A11",
"/  c #06AB12",
"(  c #031604",
")  c #181818",
"_  c white",
"`  c #8D8D8D",
"'  c gray16",
"]  c gray50",
"[  c #808080",
"{  c #0E0E0E",
"}  c #929292",
"|  c #515151",
" . c #494949",
".. c #06740F",
"X. c #02B20F",
"o. c #077511",
"O. c #03A210",
"+. c #051306",
"@. c #058A11",
"#. c #06AA13",
"$. c #031605",
"%. c #010000",
"&. c #062E0A",
"*. c #096B11",
"=. c #0A6A12",
"-. c #07350C",
";. c #06720F",
":. c #059C12",
">. c #03AC10",
",. c #077810",
"<. c #096110",
"1. c #073B0C",
"2. c #067210",
"3. c #0A5111",
"4. c #08430C",
"5. c #030904",
"6. c #039711",
"7. c #07A514",
"8. c #05520D",
"9. c #079813",
"0. c #02B010",
"q. c #059411",
"w. c #059410",
"e. c #04A210",
"r. c #02AE11",
"t. c #059310",
"y. c #04940F",
"u. c #04A311",
"i. c #048B10",
"p. c #02A510",
"a. c #02A910",
"s. c #02A410",
"d. c #02A40F",
"f. c #01B111",
"g. c #03AB10",
"h. c #02A30F",
"j. c #07280B",
"k. c #030A03",
"l. c #081B09",
"z. c #09460D",
"x. c #030C03",
"c. c #030C02",
"v. c #061C07",
"b. c #05A312",
"n. c #07600E",
"m. c #020C02",
"M. c gray1",
"N. c #050D06",
"B. c #088C13",
"V. c #069512",
"C. c #09590F",
"Z. c #062909",
"A. c #08370B",
"S. c #04A512",
"D. c #04A611",
"F. c #078C11",
"G. c #08470C",
"H. c #052F08",
"J. c #067B0F",
"K. c #041C06",
"L. c #06690D",
"P. c #058A10",
"I. c #03A811",
"U. c #06690E",
"Y. c #07490C",
"T. c #05520C",
"R. c #069813",
"E. c #06250A",
"W. c #074F0D",
"Q. c #089012",
"!. c #09440D",
"~. c #087510",
"^. c #061306",
"/. c #073E0D",
"(. c #078411",
"). c #04A212",
"_. c #02AE10",
"`. c #088811",
"'. c #0A7112",
"]. c #030604",
"[. c #040603",
"{. c #040604",
"}. c #06540E",
"|. c #069912",
" X c #020302",
".X c #061007",
"XX c #05B413",
"oX c #04B313",
"OX c #03B313",
"+X c #02B211",
"@X c #03B413",
"#X c #03B412",
"$X c #085B0E",
"%X c #062309",
"&X c #09350E",
"*X c #04B211",
"=X c #086E11",
"-X c #052909",
";X c #040B05",
":X c #059312",
">X c #03AD12",
",X c #03B010",
"<X c #082B0A",
"1X c #01B20F",
"2X c #05AB12",
"3X c #077110",
"4X c #069611",
"5X c #085A0E",
"6X c #068611",
"7X c #052F07",
"8X c #07520E",
"9X c #0A590F",
"0X c #030202",
"qX c #07320A",
"wX c #06600D",
"eX c #061808",
"rX c #086510",
"tX c #053C09",
"yX c #06470C",
"uX c #04A712",
"iX c #073F0C",
"pX c #041205",
"aX c #05A212",
"sX c #040804",
"dX c #08560E",
"fX c #086D0F",
"gX c #07560D",
"hX c #072C09",
"jX c #03B312",
"kX c #02B310",
"lX c #073F0D",
"zX c #041206",
"xX c #03B210",
"cX c #073D0B",
"vX c #053C0B",
"bX c #063C0B",
"nX c #061607",
"mX c #030704",
"MX c #07370B",
"NX c #051F08",
/* pixels */
"                                                                                                                                ",
". . . . . . . . . . . . . . . . . . . . . . . . . . . . . . . . . . . . . . . . . . . . . . . . . . . . . . . . . . . . . . . . ",
". . . . . . . . . . . . . . . . . . . . . . . . . . . . . . . . . . . . . . . . . . . . . . . . . . . . . . . . . . . . . . . . ",
". . . . . . . . . . . . . . . . . . . . . . . . . . . . . . . . . . . . . . . . . . . . . . . . . . . . . . . . . . . . . . . . ",
". . . . . . . . . . . . . . . . . . . . . . . . . . . . . . . . . . . . . . . . . . . . . . . . . . . . . . . . . . . . . . . . ",
". . . . . . . . . . . . . . . . . . . . . . . . . . X o O o o o o o o o o + . . . . . . . . . . . . . . . . . . . . . . . . . . ",
". . . . . . . . . . . . . . . . . . . . . . . . . . @ # $ % % % % % % % % & * . . . . . . . . . . . . . . . . . . . . . . . . . ",
". . . . . . . . . . . . . . . . . . . . . . . . = - ; : > > > > > > > > > , < 1 . . . . . . . . . . . . . . . . . . . . . . . . ",
". . . . . . . . . . . . . . . . . . . . . . 2 3 4 5 6 > > > > > > > > > > 6 7 8 * 3 * . . . . . . . . . . . . . . . . . . . . . ",
". . . . . . . . . . . . . . . . . . . . . . 9 0 q w > > > > > > > > > > > > 6 e r t * . . . . . . . . . . . . . . . . . . . . . ",
". . . . . . . . . . . . . . . . . . . . . . y u > > > > > > > > > > > > > > > > 6 i 3 . . . . . . . . . . . . . . . . . . . . . ",
". . . . . . . . . . . . . . . . . . . . . . p u a s d f g > > > > > > h f d j k 6 i 3 . . . . . . . . . . . . . . . . . . . . . ",
". . . . . . . . . . . . . . . . . . . . . p l z x c 3 p v 6 6 > > 6 6 b n 3 m M 7 N B 3 . . . . . . . . . . . . . . . . . . . . ",
". . . . . . . . . . . . . . . . . . . . 3 V C Z A c . S D F G 6 6 H J K c . 2 L F P I U . . . . . . . . . . . . . . . . . . . . ",
". . . . . . . . . . . . . . . . . . . . * Y 6 T S R R R E . W > > Q ! S R R R ~ . ^ / ( . . . . . . . . . . . . . . . . . . . . ",
". . . . . . . . . . . . . . . . . . . . * Y 6 T ) _ _ _ ` . W > > Q ! ' _ _ _ ] . ^ / ( . . . . . . . . . . . . . . . . . . . . ",
". . . . . . . . . . . . . . . . . . . . * Y 6 T ) _ _ _ ` . W > > Q ! ' _ _ _ [ . ^ / ( . . . . . . . . . . . . . . . . . . . . ",
". . . . . . . . . . . . . . . . . . . . * Y 6 T ) _ _ _ ` . W > > Q ! ' _ _ _ [ . ^ / ( . . . . . . . . . . . . . . . . . . . . ",
". . . . . . . . . . . . . . . . . . . . * Y 6 T { } } } | . W > > Q ! ) } } }  .. ^ / ( . . . . . . . . . . . . . . . . . . . . ",
". . . . . . . . . . . . . . . . . . . . * ..X.T p m . S p * o.6 > O.+.p S . S p * @.#.$.. . . . . . . . . . . . . . . . . . . . ",
". . . . . . . . . . . . . . . . . . . . %.&.s *.=.c . 2 -.;.:.6 > >.,.<.c . m 1.2.3.4.5.. . . . . . . . . . . . . . . . . . . . ",
". . . . . . . . . . . . . . . . . . . . . . 2 6.7.c S S 8.> > > > > > 9.y S S 8 > N 3 . . . . . . . . . . . . . . . . . . . . . ",
". . . . . . . . . . . . . . . . . . . . . . 2 6.0.q.w.w.e.> > > > > > r.t.y.t.u.> i 3 . . . . . . . . . . . . . . . . . . . . . ",
". . . . . . . . . . . . . . . . . . . . . . c i.p.7 > 6 > > a.s.d.p.f.> > > 6 g.h.j.3 . . . . . . . . . . . . . . . . . . . . . ",
". . . . . . . . . . . . . . . . . . . . . . S k.l.5 > > > > z.x.c.v.b.> > > 6 n.m.M.3 . . . . . . . . . . . . . . . . . . . . . ",
". . . . . . . . . . . . . . . . . . . . . . . . N.B.V.6 > > C.Z.Z.A.S.> > D.F.G.. . . . . . . . . . . . . . . . . . . . . . . . ",
". . . . . . . . . . . . . . . . . . . . . . . . * 3 H.6 : > 6 : 6 : > > 6 J.S 3 . . . . . . . . . . . . . . . . . . . . . . . . ",
". . . . . . . . . . . . . . . . . . . . . . . . . . K.L.P.> > > > > > I.U.Y.. . . . . . . . . . . . . . . . . . . . . . . . . . ",
". . . . . . . . . . . . . . . . . . . . . . . . . . . S T.> > > > > > R.p * . . . . . . . . . . . . . . . . . . . . . . . . . . ",
". . . . . . . . . . . . . . . . . . . . . . . . . . . 3 E.W.Q.6 > $ C.!.c . . . . . . . . . . . . . . . . . . . . . . . . . . . ",
". . . . . . . . . . . . . . . . . . . . . . . . . . . 3 m p ~.6 > e.^.S m . . . . . . . . . . . . . . . . . . . . . . . . . . . ",
". . . . . . . . . . . . . . . . . . . . . . . . . . %.3 /.(.).6 > _.`.'.c %.. . . . . . . . . . . . . . . . . . . . . . . . . . ",
". . . . . . . . . . . . . . . . . . . . . . . . S ].[.{.}.> > > > > > |.{.[.{. X. . . . . . . . . . . . . . . . . . . . . . . . ",
". . . . . . . . . . . . . . . . . . . . . . . . .XXXoXOX+X> > > > > > : @XoX#X$X. . . . . . . . . . . . . . . . . . . . . . . . ",
". . . . . . . . . . . . . . . . . . . . . . y %X&X*X> > > > > > > > > > > > > =X-X;X* . . . . . . . . . . . . . . . . . . . . . ",
". . . . . . . . . . . . . . . . . . . . . . y :X>X6 > > > > > > > > > > > > 6 ,X>X<X3 . . . . . . . . . . . . . . . . . . . . . ",
". . . . . . . . . . . . . . . . . . . . . . 2 6.> > > > > > > > > > > > > > > > 6 i 3 . . . . . . . . . . . . . . . . . . . . . ",
". . . . . . . . . . . . . . . . . . . . . . 2 6.6 6 6 > > > > > > > > > > 1X1X1X6 i 3 . . . . . . . . . . . . . . . . . . . . . ",
". . . . . . . . . . . . . . . . . . . . . . 2 6.2X$X3X> > > > > > > > > > 4X5X6X6 i 3 . . . . . . . . . . . . . . . . . . . . . ",
". . . . . . . . . . . . . . . . . . . . . . 2 6.7.y 7X> > > > > > > > > > J.S 8 6 i 3 . . . . . . . . . . . . . . . . . . . . . ",
". . . . . . . . . . . . . . . . . . . . . . 2 6.7.y 7X> > > > > > > > > > J.S 8 6 i 3 . . . . . . . . . . . . . . . . . . . . . ",
". . . . . . . . . . . . . . . . . . . . . . 2 6.7.y 7X> > > > > > > > > > J.S 8 6 i 3 . . . . . . . . . . . . . . . . . . . . . ",
". . . . . . . . . . . . . . . . . . . . . . 2 6.7.y 7X> > > > > > > > > > J.S 8 6 i 3 . . . . . . . . . . . . . . . . . . . . . ",
". . . . . . . . . . . . . . . . . . . . . . 2 6.7.y 7X> > > > > > > > > > J.S 8 6 i 3 . . . . . . . . . . . . . . . . . . . . . ",
". . . . . . . . . . . . . . . . . . . . . . 2 6.7.y 7X> > > > > > > > > > J.S 8 6 i 3 . . . . . . . . . . . . . . . . . . . . . ",
". . . . . . . . . . . . . . . . . . . . . . 2 6.7.y 7X> > > > > > > > > > J.S 8 6 i 3 . . . . . . . . . . . . . . . . . . . . . ",
". . . . . . . . . . . . . . . . . . . . . . 2 u 7.y 7X> > > > > > > > > > J.S 8 6 i 3 . . . . . . . . . . . . . . . . . . . . . ",
". . . . . . . . . . . . . . . . . . . . . . n 8X9X0X7X> > > > > > > > > > J.m qXwXeX3 . . . . . . . . . . . . . . . . . . . . . ",
". . . . . . . . . . . . . . . . . . . . . . . . . . 7X> > > : 7 : 7 > > > J.. . . . . . . . . . . . . . . . . . . . . . . . . . ",
". . . . . . . . . . . . . . . . . . . . . . . . . . 7X> > > rXtXtXyXuX> > J.. . . . . . . . . . . . . . . . . . . . . . . . . . ",
". . . . . . . . . . . . . . . . . . . . . . . . . . 7X> > > iX%.. pXaX> > J.. . . . . . . . . . . . . . . . . . . . . . . . . . ",
". . . . . . . . . . . . . . . . . . . . . . . . . . 7X> > > iX%.. pXaX> > J.. . . . . . . . . . . . . . . . . . . . . . . . . . ",
". . . . . . . . . . . . . . . . . . . . . . . . . . 7X> > > iX%.. pXaX> > J.. . . . . . . . . . . . . . . . . . . . . . . . . . ",
". . . . . . . . . . . . . . . . . . . . . . . . . . 7X> > > iX%.. pXaX> > J.. . . . . . . . . . . . . . . . . . . . . . . . . . ",
". . . . . . . . . . . . . . . . . . . . . . . . . . 7X> > > iX%.. pXaX> > J.. . . . . . . . . . . . . . . . . . . . . . . . . . ",
". . . . . . . . . . . . . . . . . . . . . . . . . . 7X> > > iX%.. pXaX> > J.. . . . . . . . . . . . . . . . . . . . . . . . . . ",
". . . . . . . . . . . . . . . . . . . . . . . . sXdXfX6 > > iX%.. pXaX> > V.gXhX. . . . . . . . . . . . . . . . . . . . . . . . ",
". . . . . . . . . . . . . . . . . . . . . . . . .XjXkX6 6 6 lX3 . zXaX6 6 7 xX8 . . . . . . . . . . . . . . . . . . . . . . . . ",
". . . . . . . . . . . . . . . . . . . . . . . . [.cXvXvXvXbXnX3 . mXMXvXvXvXbXNX. . . . . . . . . . . . . . . . . . . . . . . . ",
". . . . . . . . . . . . . . . . . . . . . . . . . . . . . . . . . . . . . . . . . . . . . . . . . . . . . . . . . . . . . . . . "
};
