/* XPM */
static char *_4cd748972b44f3be8b4617ace2627bd12DC4p9SNnGTBs3I[] = {
/* columns rows colors chars-per-pixel */
"32 32 136 2 ",
"   c black",
".  c #010101",
"X  c #010201",
"o  c #010001",
"O  c #057A0E",
"+  c #03A810",
"@  c #05850F",
"#  c #020503",
"$  c #05710E",
"%  c #01B110",
"&  c #00B210",
"*  c #06740F",
"=  c #020502",
"-  c #03560A",
";  c #02AD11",
":  c #03AD12",
">  c #00B110",
",  c #02AC11",
"<  c #04590B",
"1  c #020802",
"2  c #05590D",
"3  c #043F0A",
"4  c #010102",
"5  c #048510",
"6  c #01B010",
"7  c #059912",
"8  c #020102",
"9  c #063A0A",
"0  c #065C0D",
"q  c #020803",
"w  c #04510B",
"e  c #055B0C",
"r  c gray8",
"t  c gray12",
"y  c #070707",
"u  c #049611",
"i  c #03A711",
"p  c #040905",
"a  c #151515",
"s  c #03580B",
"d  c #04550A",
"f  c #045B0C",
"g  c #A0A0A0",
"h  c white",
"j  c #313131",
"k  c #039511",
"l  c #02A711",
"z  c #141814",
"x  c gray65",
"c  c #02580A",
"v  c #035509",
"b  c #818181",
"n  c #CDCDCD",
"m  c #272727",
"M  c #101410",
"N  c gray52",
"B  c #053F0A",
"V  c #075B0E",
"C  c #031104",
"Z  c #042407",
"A  c #049C11",
"S  c #02A910",
"D  c #062C08",
"F  c #031004",
"G  c #065A0E",
"H  c #054209",
"J  c #02580B",
"K  c #04630D",
"L  c #033307",
"P  c #029A10",
"I  c #03A911",
"U  c #043307",
"Y  c #05600C",
"T  c #045C0B",
"R  c #000001",
"E  c #043D09",
"W  c #039D0F",
"Q  c #03830E",
"!  c #037E0D",
"~  c #039F10",
"^  c #053F09",
"/  c #05490B",
"(  c #03A110",
")  c #06530D",
"_  c #06490B",
"`  c #03A510",
"'  c #064C0B",
"]  c #044E0A",
"[  c #02A510",
"{  c #01AD11",
"}  c #05560B",
"|  c #05520C",
" . c #03A511",
".. c #02AD10",
"X. c #07600E",
"o. c #05460A",
"O. c #03A310",
"+. c #02AC10",
"@. c #05520B",
"#. c #043F09",
"$. c #05650D",
"%. c #02A310",
"&. c #05420A",
"*. c #043309",
"=. c #049610",
"-. c #049710",
";. c #053509",
":. c #046A0D",
">. c #02920F",
",. c #039910",
"<. c #05670D",
"1. c #034409",
"2. c #02800D",
"3. c #038D0E",
"4. c #045C0C",
"5. c #020D03",
"6. c #01B210",
"7. c #020C03",
"8. c #021104",
"9. c #053409",
"0. c #042607",
"q. c #01AF10",
"w. c #031D06",
"e. c #020D04",
"r. c #01AE10",
"t. c #02810D",
"y. c #038D0F",
"u. c #06680E",
"i. c #03AA11",
"p. c #041C06",
"a. c #030C04",
"s. c #04AA11",
"d. c #076B0F",
"f. c #010502",
"g. c #010802",
"h. c #000100",
/* pixels */
"                                                                ",
"                                                                ",
"                          . X X X X .                           ",
"                        o O + + + + @ .                         ",
"                      # $ % & & & & % * =                       ",
"                      - ; : > & & & : , <                       ",
"                    1 2 3 4 5 6 % 7 8 9 0 q                     ",
"                    w e r t y u i p t a s d                     ",
"                    w f g h j k l z h x c v                     ",
"                    w f b n m k l M n N c v                     ",
"                    B V C . Z A S D o F G H                     ",
"                      J K L P & & I U Y T R                     ",
"                      E W & & Q ! > & ~ ^                       ",
"                        / ( & ) _ 6 ` '                         ",
"                          ] [ & & { }                           ",
"                          o |  ...X.o                           ",
"                          o o.O.+.@..                           ",
"                        #.$.%.& & ; $.&.                        ",
"                      *.=.& & & & & & -.;.                      ",
"                      J & & & & & & & & T                       ",
"                      J :.>.& & & & ,.<.T                       ",
"                      J 1.2.& & & & 3.#.T                       ",
"                      J 1.2.& & & & 3.#.T                       ",
"                      J 1.2.& & & & 3.#.T                       ",
"                      s 1.2.& & & & 3.#.4.                      ",
"                      F 5.2.& 6.6.& 3.7.8.                      ",
"                          2.& 9.0.q.3.                          ",
"                          2.& w.e.r.3.                          ",
"                          2.& w.e.r.3.                          ",
"                          t.& w.e.r.y.                          ",
"                        u.i., p.a.I s.d.                        ",
"                        f.g.g.. h.g.g.f.                        "
};
