/* XPM */
static char *_a9434c68b8447efde4ac604265346d9L6sGAztyRJn6Rppl[] = {
/* columns rows colors chars-per-pixel */
"60 60 199 2 ",
"   c #0A000B",
".  c #100611",
"X  c #160A17",
"o  c #1B0C1B",
"O  c #1E101E",
"+  c #17022D",
"@  c #19032E",
"#  c #1B0433",
"$  c #1E0936",
"%  c #1E043A",
"&  c #1F0938",
"*  c #211222",
"=  c #2E1D2E",
"-  c #220434",
";  c #2B0335",
":  c #210836",
">  c #23053C",
",  c #2B053C",
"<  c #23093C",
"1  c #2A0A3E",
"2  c #310437",
"3  c #34053B",
"4  c #3B053D",
"5  c #33083E",
"6  c #3B263B",
"7  c #40063F",
"8  c #230442",
"9  c #2C0543",
"0  c #260943",
"q  c #2A0A46",
"w  c #2A0749",
"e  c #2C0B4A",
"r  c #270849",
"t  c #340442",
"y  c #3C0542",
"u  c #330A45",
"i  c #3B0844",
"p  c #3D0749",
"a  c #330C4C",
"s  c #3A0B4B",
"d  c #36074B",
"f  c #2C1345",
"g  c #3C114E",
"h  c #32194C",
"j  c #2F0E52",
"k  c #320C51",
"l  c #3B0D53",
"z  c #340E5A",
"x  c #3C0E5C",
"c  c #331253",
"v  c #3D1153",
"b  c #361C51",
"n  c #3B1A5E",
"m  c #38135C",
"M  c #3A0F60",
"N  c #3D1862",
"B  c #420541",
"V  c #450541",
"C  c #440541",
"Z  c #450541",
"A  c #440541",
"S  c #480746",
"D  c #430C4C",
"F  c #49084C",
"G  c #410E5A",
"H  c #470C55",
"J  c #520E5D",
"K  c #441253",
"L  c #481357",
"P  c #46135A",
"I  c #4B145A",
"U  c #53145E",
"Y  c #53185F",
"T  c #482D47",
"R  c #4D324D",
"E  c #5C3C5C",
"W  c #533451",
"Q  c #520E62",
"!  c #461263",
"~  c #4B1264",
"^  c #421F66",
"/  c #44196D",
"(  c #4C1B64",
")  c #551563",
"_  c #5C1466",
"`  c #511C65",
"'  c #5B1B66",
"]  c #511568",
"[  c #5A186C",
"{  c #4C1D7A",
"}  c #461973",
"|  c #5F1B75",
" . c #64136A",
".. c #6A176F",
"X. c #641A6C",
"o. c #6C1673",
"O. c #671A78",
"+. c #711A75",
"@. c #761978",
"#. c #7B187D",
"$. c #4B2366",
"%. c #422660",
"&. c #572469",
"*. c #4E316F",
"=. c #4C2871",
"-. c #552875",
";. c #563676",
":. c #64266F",
">. c #60326D",
",. c #6C2276",
"<. c #652877",
"1. c #77257C",
"2. c #633373",
"3. c #60425F",
"4. c #644562",
"5. c #6B4C6C",
"6. c #6E456D",
"7. c #714B6F",
"8. c #651F84",
"9. c #572489",
"0. c #5C3683",
"q. c #6F2584",
"w. c #742B84",
"e. c #7B3381",
"r. c #733889",
"t. c #672A97",
"y. c #7238A8",
"u. c #7C4291",
"i. c #7F4895",
"p. c #7A438B",
"a. c #841A82",
"s. c #981C91",
"d. c #842C88",
"f. c #88358C",
"g. c #972B95",
"h. c #8F3C92",
"j. c #943996",
"k. c #A0249A",
"l. c #8239B4",
"z. c #A53FA4",
"x. c #B636AE",
"c. c #B93CB1",
"v. c #844F8E",
"b. c #885586",
"n. c #9F449F",
"m. c #944299",
"M. c #8D599B",
"N. c #945E9A",
"B. c #8A4A98",
"V. c #8C618B",
"C. c #9D649A",
"Z. c #986597",
"A. c #9743AA",
"S. c #8943BD",
"D. c #A44DA3",
"F. c #A443A3",
"G. c #B145A9",
"H. c #AF57AD",
"J. c #B958B8",
"K. c #A95DBA",
"L. c #9A71A9",
"P. c #A966A5",
"I. c #A86CA6",
"U. c #A465A9",
"Y. c #AB71AA",
"T. c #AC78AD",
"R. c #AB69B1",
"E. c #B662B4",
"W. c #BF62BC",
"Q. c #BC6CBC",
"!. c #B56FB2",
"~. c #AC73B2",
"^. c #B472B6",
"/. c #C148B9",
"(. c #C05ABA",
"). c #C269BE",
"_. c #C07CBE",
"`. c #BD7AC0",
"'. c #CC56C3",
"]. c #CC5AC6",
"[. c #D151C8",
"{. c #DA5DD1",
"}. c #C56CC1",
"|. c #CE68C8",
" X c #CC74CB",
".X c #C87BC8",
"XX c #DD70D9",
"oX c #E07BDD",
"OX c #B286B2",
"+X c #B982BE",
"@X c #C189BF",
"#X c #BA8FC3",
"$X c #C082C3",
"%X c #E582DF",
"&X c #E994E5",
"*X c #EAA5E9",
"=X c #F3AEF1",
"-X c #F5B7F5",
";X c #F6BAF6",
/* pixels */
"- 7 V V V V V V V V V V l.t.V V 4 @ + @ + # @ + + + + + + + + + + + $ + + + + + + + + + @ # # 4 V V V V V V V V V V V V ",
"2 V V V V B B V V V V B F S V V 7 # @ @ + + + + + + + + + + @ *.# + @ + + < z + + @ $ + + @ + 2 V V V V V V V V V V V V ",
"V V V V 4 ; 2 4 B V B y V 4 2 3 3 # + # # + + + + + + + + + + + + + + + + > k + + + + @ # # # 4 V V B y B V V V V V V V ",
"V V V B 3 ; ; ; 3 V V V V 2 ; ; ; # + + + + + + + + + + + + + + + + + + + < z + + + + # # + - V V V y t y V S B y y V V ",
"7 7 7 4 ; ; ; 1 ; 4 V V B 2 ; ; ; @ + + + + + + + @ # + + + + + + % # 8 8 c / 8 r # 8 + + @ 3 V B y t t y p _ y t t B B ",
"; ; ; ; ; ; ; 1 ; ; B V 4 ; ; ; - + @ % % % % % % % # @ + + + + + 0 $ e e / 9.e z # e + # 4 V V y t t t t d | t t t t t ",
"; ; ; ; ; ; ; ; ; ; B V 5 ; ; ; - # 8 8 8 8 8 8 8 8 8 > % # + + @ # + + + % e + + + + # 3 V V B t t p I ) r.K.<.G H 9 9 ",
"@ - ; ; ; ; ; ; ; ; 2 2 ; ; ; - 1 l 8 8 8 8 8 8 8 8 8 8 8 > # @ @ @ + + + < z + + $ # 5 y B y t t t i l l -.A.! k a 8 8 ",
"+ @ - ; ; ; ; ; ; ; ; ; ; ; - @ u ( 8 8 8 8 8 8 8 8 8 8 8 8 8 % @ + # $ + < j + @ - , t t t t t t t t 9 8 w ~ 8 8 8 8 8 ",
"+ + @ @ @ - - ; ; ; ; ; ; ; s K B.U.[ G 9 8 8 8 8 9 t t t 9 9 , - @ & < + # > # - t t t t t t t t t t 9 8 w ! 8 8 8 8 8 ",
"+ + + + + + + # ; ; ; ; ; ; > 1 2.u.k e 8 8 8 0 q B V V V B t 8 8 0 0 > - @ @ # , t t t t t t t t t t 9 8 8 e r 8 =.c 8 ",
"+ + + + + + + + - ; ; ; ; ; - @ 1 P 8 8 0 0 0 8 0 u y V y t t 9 9 # @ - 4 3 - # 9 t t t t t t t t t t 9 8 8 n c 8 8 8 8 ",
"+ + + h f + + + - ; ; ; ; ; ; ; a x 8 0 0 8 8 9 u B B t 8 8 8 8 8 q q , 3 V V y 9 t t t t t t t t t t 9 8 8 8 8 8 8 8 8 ",
"+ + + < < + @ # > 8 8 ; ; ; 8 8 8 0 0 8 8 0 q B V V B t q q t y y y B y B V V V B y t t t t t t t t t 8 8 8 8 8 j 0 8 8 ",
"+ + + + + # > 8 8 8 8 8 8 8 8 8 0 8 8 0 0 0 t y u y t t i y 7 B y u y y B y y y V B 0 9 t t t t t t 9 8 8 8 8 8 ^ e 8 8 ",
"+ + + + + % 8 8 8 8 8 8 8 8 8 0 0 8 8 0 0 q q < 0 q q 9 ; : < q < < q q u i y t y t 0 0 9 9 9 9 9 9 8 8 8 8 8 8 8 8 8 8 ",
"+ + + + # 8 8 8 8 8 8 8 8 8 0 0 8 8 0 9 9 i q $ < < < # + @ $ < < : < < 0 q 9 t y 0 8 0 0 8 8 8 8 8 8 8 8 8 8 8 8 8 8 9 ",
"+ + + + # 8 8 8 8 8 8 8 8 0 8 8 8 q 9 B B u < $ q g K K K K L ) Y K - $ $ $ $ < 4 y q 0 0 9 8 8 8 8 8 8 8 8 8 0 0 8 8 t ",
"+ + + + + % 8 8 8 8 8 8 8 0 8 9 t t y 5 q < $ < K +.z.'.'.'.'.'./.d.L u @ $ $ $ < B y u y y 8 8 8 8 8 8 8 8 8 9.9.r 8 t ",
"+ + + + # 8 8 8 8 8 8 8 0 0 9 y B t q $ $ $ u ,.W.!.6.6 6 6 6 6 R C.}.h.u + # $ $ q i V V V y 8 8 8 8 8 8 8 8 } { 0 9 t ",
"+ + # % 8 8 8 n N 8 8 0 8 q y V y q < < < u j..X7.= .             o 3.I.D.L $ q $ 0 u V V V B 9 8 8 9 t 9 8 8 8 0 8 t t ",
"+ + # % % 8 8 r e 8 0 0 < u B y q < < g K f.b.=                       * E H.U K q 0 u V V V B 9 8 8 t t t 9 8 8 8 8 t y ",
"+ + + + @ > 8 8 8 8 0 < q B B t < 1 K L j.N..                             W J.U K < q t y B y 0 8 9 t t t t 8 8 8 8 t y ",
"+ + @ # # % 8 8 8 8 q < q y t a g L L _ E.4.                              O !.1.K q q q i V y 0 0 t t t t t 9 8 8 8 t y ",
"+ + > e.f.#.w.p.o.a u a s K L L U a.s.{.Y.*                                 5.E.) K a e u V B 8 q t t t t t t 8 8 9 t y ",
"+ + + # 0 v ( $.) m.n.+X$Xc.x.x.x.{.%X*X4.                                  = _.e.L L v u B B < q t t t y B t 9 8 t t y ",
"+ + + + @ 0 q 0 < < < a _ f.H.|.%X=X;XOXo                                     5.}.I L g i y y 0 < q t y V V V B y y y V ",
"+ + + + # # 0 q 0 $ $ < u s L ..k.[.&XOXX                                     5.*X1.I K D p t q $ q t y V V V V V B V V ",
"+ + + # %.+ # 0 q < $ < q t e a I +.c.T.X                                     5.;XW.g._ L K s w $ q 9 3 V V V V V V V V ",
"+ # # + + + # q q < $ $ 0 9 1 < p L @.P.X                                     5.;X-X&X].g.:.&.I q q 0 9 t y B B V V V V ",
"+ + @ + + # % q < & $ $ 0 q < t i K @.P.X                                     5.-XoXXX`.^.~.~.R.v.1.L q t t t t y V V V ",
"+ + + + + # $ q < $ $ $ 0 0 q B B i @.P.o                                     5. XX. .I L K L 2.>.I ,.M.M.#. .:.H B V V ",
"+ + + @ $ + $ q 0 < $ $ 0 0 q B B y J Q.R                                   * Y.h.L K K s a t q < < e c c l _ <.H B V V ",
"+ + + e t.0 @ < q 0 $ $ q 0 q B u y p n.Z.o                                 E Q.' v u q u y y < $ < q q q 0 9 t t B V V ",
"$ + + < { $ + @ > q 0 $ q 9 q i i t i X.).R                               X I.d.q < $ 0 i V B < $ 0 q 0 $ < > ` &.y V V ",
"+ + + + + @ % % % 0 q < q t t u y t D K j.C.                              6  XP q < < q u V y < < q 0 # @ 0 $ , t t y V ",
"+ + + # % 8 8 8 8 8 8 < < q t q i , , K I z.5.                          T W._ u < $ 1 u t t < $ q q 0 # + + # t t t t t ",
"+ + # > 8 8 8 8 8 8 8 > < q y B u < > s K U G.@X6 X                 = V.).+.v < $ 0 u B y y < < q q 0 # + + - t t t t t ",
"@ % > 8 8 8 8 8 8 8 8 8 < q u B y t 1 < > t L d. XI.E = = = = = 6 b..XD._ a < < < u V V B 9 < q 0 0 9 1 # + + , t t t t ",
"% 8 8 8 8 ^ r 8 8 8 8 8 $ q r u y t t q < < < g Y f.J.}.}.}.}.}.(.F.' L q 0 < q q i y y , > 0 0 8 t t t , # + # , t t t ",
"8 8 8 8 8 N r 8 8 8 8 8 @ 0 q q y V t t q 0 $ < K K _ +.+.o.o.+.o.K a e q 0 r r q y t 9 $ > 8 8 9 t t t t - + f - , t t ",
"t 9 8 8 8 8 8 8 8 8 8 8 @ $ q < - y V B y q < $ $ q a a a q e a e r q q q q q q y t 0 8 > 8 8 8 9 t t t t - + b # # t t ",
"t t t 9 8 8 8 8 8 8 8 8 @ + % $ @ ; B B y t 9 < $ : 0 < < & < q q < < < q q t y t 0 0 0 0 8 8 8 9 t y B y ; - # @ + t t ",
"t t t t t 8 8 8 8 8 8 8 # + @ $ $ @ - t t t t 9 0 0 r q q 0 < < < < q q t t t 9 0 0 0 0 8 8 8 8 8 t V V V B y t - @ t t ",
"t t t t t 9 8 8 8 8 8 8 % + + @ $ $ @ - t t t t t q r r r r q q 0 q q y t 8 8 0 0 0 0 8 8 8 8 8 8 8 t B V V B t t - - t ",
"y B t t t 9 8 8 8 8 8 8 > @ + + @ $ > # - , t y y y y t t t q q q t y y 8 0 0 0 0 0 8 8 8 8 8 8 8 8 8 9 t V V y t , @ - ",
"V V y t t 9 8 8 8 8 0 a 8 > # + + + @ < $ # 4 V V V V V B y y t y B B t 9 8 0 0 8 8 8 8 8 8 8 8 8 8 8 8 8 y V V y t # + ",
"V V y t 9 8 8 8 8 8 x O.8 8 8 > - @ + + $ > , V V V V V V V V V B ; ; 8 0 0 8 8 8 8 8 8 8 8 0.8 8 8 8 t y V V V y t # + ",
"V V t t 8 8 8 8 8 8 a G 8 8 8 9 t t t t t t t ; 2 3 V V V V V V 3 > < 8 8 8 8 8 8 8 8 8 8 8 8 8 8 8 t V V V V V B t # + ",
"V y t 9 8 8 8 8 8 8 $.u.8 8 8 8 9 t t t t t t t @ @ - - - > - > - @ + % 8 8 8 8 8 8 8 8 8 8 8 8 8 8 t B V V V V y t # + ",
"y t t 9 8 8 l ] ] u.L.#Xi.| ~ ~ 8 8 9 9 t t t t - + + + + @ + + + + + % 8 8 8 8 8 8 8 8 8 8 8 8 % > t y B B B y t , @ + ",
"t t t t 9 8 0 e e v 2.N.v k w w 8 8 8 8 9 t t t ; + + + @ < $ # # + > a 8 8 8 8 8 8 8 8 8 8 8 > @ # > 9 t t t t , - + + ",
"t t t t t 9 9 9 9 t I ,.t t 9 9 8 8 8 8 t t t t > + + + @ < # h b + u ~ $ 8 8 8 8 8 8 8 8 8 > # + + # # # - - - @ + + + ",
"y t t t t t t t t t H _ t t t t t 8 8 9 t t t t > + + + + + + + - - s ` $ 9 8 8 8 8 8 8 % # @ + @ + + @ + + + + + + ;.+ ",
"V y y y y t t t t t I q.t t t t t 9 8 t t t t t % + + + + + + + I ~ w.A.K | @ @ @ @ @ # + + + + $ + + # # + + + + + < + ",
"V V V V V B y t t t s K t t t t t t 8 9 t t t 9 % + + + + + + + + + 1 l + + + + + + q > + + + + + + $ 0 + + + + + + + + ",
"V V V V V V V y t t t t t t t t t 9 8 8 9 0 e 8 8 % + + + + + + # @ u ] + + + + + + k 0 + + + # + + / y.0 + + + + + + + ",
"V V F J V V V B t t t t t t t t t 8 8 8 8 8 -.8 8 8 % # # # # % > 8 > > + + + + + + k 8 + + + @ + + r / $ + # @ + + + + ",
"V V 8.S.J V V V y y y y t t t t 9 8 8 8 8 8 8 8 8 8 8 8 8 8 8 8 8 8 8 # + + > $ 0 > } m 0 0 $ > @ @ + + + + @ @ + + + + ",
"V V F Q V V V V V V V V y t 9 8 8 8 8 8 8 8 8 8 8 8 8 8 8 8 8 8 8 8 8 % + + e > M k t.{ M x 1 e # # + + + + + + + + + + "
};
