/* XPM */
static char *_4b0d629fb4c4c00ccbf952b7a565f57RSKDUWd5H94aOzMy[] = {
/* columns rows colors chars-per-pixel */
"68 60 206 2 ",
"   c #030F0F",
".  c #010E16",
"X  c #0A0C14",
"o  c #020E19",
"O  c #0A0C19",
"+  c #031015",
"@  c #05121A",
"#  c #0A161D",
"$  c #091A19",
"%  c #141517",
"&  c #03130D",
"*  c #2F1B13",
"=  c #082B1F",
"-  c #393416",
";  c #2D2B15",
":  c #030D21",
">  c #0A1D24",
",  c #111D25",
"<  c #1D1E21",
"1  c #0A2325",
"2  c #0A2928",
"3  c #152128",
"4  c #1B2329",
"5  c #1F2B30",
"6  c #053431",
"7  c #282827",
"8  c #20312A",
"9  c #232D36",
"0  c #393836",
"q  c #333438",
"w  c #443614",
"e  c #463F3A",
"r  c #4A3F3B",
"t  c #433A36",
"y  c #4E3B26",
"u  c #084733",
"i  c #3B563C",
"p  c #08763C",
"a  c #54481C",
"s  c #675314",
"d  c #44463A",
"f  c #4C4139",
"g  c #494634",
"h  c #5D4739",
"j  c #584923",
"k  c #6B4F3C",
"l  c #2E3A42",
"z  c #343D43",
"x  c #383F47",
"c  c #353F48",
"v  c #0D5249",
"b  c #3A434B",
"n  c #375643",
"m  c #3F6247",
"M  c #3A6649",
"N  c #237846",
"B  c #3B714F",
"V  c #35664A",
"C  c #0F7C6A",
"Z  c #485A45",
"A  c #515144",
"S  c #4A5258",
"D  c #50585E",
"F  c #474D55",
"G  c #476E51",
"H  c #515B60",
"J  c #4F6867",
"K  c #566868",
"L  c #6B7979",
"P  c #717679",
"I  c #72797D",
"U  c #656B6F",
"Y  c #8D4E32",
"T  c #81533F",
"R  c #806D23",
"E  c #817123",
"W  c #BB613D",
"Q  c #B17B57",
"!  c #0C8943",
"~  c #0C8742",
"^  c #168649",
"/  c #079E4B",
"(  c #168050",
")  c #1A955B",
"_  c #11984B",
"`  c #378354",
"'  c #03A84C",
"]  c #08AA52",
"[  c #07B858",
"{  c #16937E",
"}  c #2E8D60",
"|  c #319860",
" . c #2DAF6F",
".. c #5B8778",
"X. c #5C9275",
"o. c #488A66",
"O. c #618377",
"+. c #698279",
"@. c #45A777",
"#. c #40BB7C",
"$. c #06C059",
"%. c #0AC765",
"&. c #16C06F",
"*. c #07D76E",
"=. c #06D96B",
"-. c #19C573",
";. c #0AD974",
":. c #18D979",
">. c #25CA7C",
",. c #22D57B",
"<. c #24DB77",
"1. c #0AE36E",
"2. c #09E879",
"3. c #02FA76",
"4. c #05F679",
"5. c #09F57A",
"6. c #01FB79",
"7. c #0AFA7E",
"8. c #11F079",
"9. c #1CE37B",
"0. c #AA9E2F",
"q. c #AE8F26",
"w. c #CFA01E",
"e. c #D0BF34",
"r. c #F0BE21",
"t. c #EEC21D",
"y. c #EFD31D",
"u. c #CDC327",
"i. c #EBC625",
"p. c #EBD727",
"a. c #F0CF2D",
"s. c #EEEE3A",
"d. c #EAF53B",
"f. c #F2E52B",
"g. c #AA814D",
"h. c #CA9A5D",
"j. c #D29755",
"k. c #ED9F5F",
"l. c #E98E55",
"z. c #EAAC50",
"x. c #CC9E65",
"c. c #CDAF6F",
"v. c #EFDF5D",
"b. c #F0CB4D",
"n. c #EEEE49",
"m. c #ECF346",
"M. c #E8F749",
"N. c #F0F542",
"B. c #ECE25F",
"V. c #E8D277",
"C. c #EDF261",
"Z. c #F4E77D",
"A. c #EEE973",
"S. c #767D82",
"D. c #0D9D82",
"F. c #10B28E",
"G. c #13BA9A",
"H. c #568782",
"J. c #7D8388",
"K. c #678084",
"L. c #50A481",
"P. c #48A796",
"I. c #40B39E",
"U. c #55B68A",
"Y. c #65B785",
"T. c #11C09B",
"R. c #1ADF87",
"E. c #09F483",
"W. c #09FA86",
"Q. c #06FA87",
"!. c #18F789",
"~. c #1BF28D",
"^. c #25E98A",
"/. c #2BE994",
"(. c #1FDEBA",
"). c #11CBA3",
"_. c #2DD0AE",
"`. c #0AEBBC",
"'. c #0BE8BA",
"]. c #0CF2BF",
"[. c #2DF7A0",
"{. c #49DF92",
"}. c #49E29B",
"|. c #0CF5C5",
" X c #02FCC7",
".X c #0AF9C5",
"XX c #03FCC9",
"oX c #0DF9CA",
"OX c #0CF5C8",
"+X c #13F4C3",
"@X c #18F2C4",
"#X c #31F6CE",
"$X c #59F6D6",
"%X c #48F7D0",
"&X c #63F7D7",
"*X c #79F7E2",
"=X c #82858B",
"-X c #8C9296",
";X c #939599",
":X c #9AA1A3",
">X c #A1A4A7",
",X c #F4EA87",
"<X c #B5F8ED",
"1X c #A6F7EC",
"2X c #D9FBF7",
"3X c #EFF9FB",
/* pixels */
". . . . . . . . . . . . . 9 4 . . . . . . . . . . . . . . . . . . . . . . . . . . . . . . . . . . . . . . . . . . . . . . . . . . . . . ",
". . . . . . . . . . . . . . . . . . . . . . . . . . . . . . . . . . . . . . . . . . . . . . . . . . . . . . . . . . . . . . . . . . . . ",
". . . . . . . . . . . . . . . . . . . . . . . . . . . . . . . . . . . . . . . . . . . . . . . . . . . . . . . . . . . . . . . . . . . . ",
". . . . . . . . . . . . . . . . . . . . . . . . . . . . . . . . . . . . . . . . . . . . . . . . . . . . . . . . . . . . . . . . . . . . ",
". . . . . . . . . . . . . . . . . . . . . . . . . . . . . . . . . . . . . . . . . . . . . . . . . . . . . . . . . . . . . . . . . . . . ",
". . . . . . . . . . . . . . . . . . . . . . . . . . . . . . . . . . . . . . . . . . . . . . . . . . . . . . . . . . . . . . . . . . . . ",
". . . . . . . . . . . . . . . . . . . . . . . . . . . . . . . . . . @ . . . . . . . . . . . . . . . . . . . . . . . . . . . . . . . . . ",
". . . . . . . . . . . . . . . . . . . . . . . . . . . . . . . . . > l . . . . . . . . . . . . . . . . . . . . . . . . . . . . . . . . . ",
". . . . . . . . . . . . . . . . . . . . . . . . . . . . . . . . . . . . . . . . . . . . . . . . . . . . . . . . . . . . . . . . . . . . ",
". . . . . . . . . . . . . . . . . . . . . . . . . . . . . . . . . . . . . . . . . . . . . . . . . . . . . . . . . . . . . . . . . . . . ",
". . . . . . . . . . . . . . . . . . . . . . . . . . . . . . . . . . . . . . . . . . . . . . . . . . . . . . . . . . . . . . . . . . . . ",
". . . . . . . . . . . . . . . . . . . . . . . . . . . . . . . . . . . . . . . . . . . . . . . . . . . . . . . . . . . . . . . . . . . . ",
". . . . . . . . . . . . . . . . . . . . . . . . . . . . . . . . . . . . . . . . . . . . . . . . . . . . . . . . . . . . . . . . . . . . ",
". . . . . . . . . . . . . . . . . . . . . . . . . . . . . . . . . . . . . . . . . . . . . . . . . . . . . . . . . . . . . . . . . . . . ",
". . . . . . . . . . . . . . . . . . . . . . . . . . . . . . . . . . . . . . . . . . . . . . . . . . . . . . . . . . . . . . . . . . . . ",
". . . . . . . . . . . . . . . . . . . . . . . . . . . . . . . . . . . . . . . . . . . . . . . . . . . . . . . . . . . . . . . . . . . . ",
". . . . . . . . . . . . . . . . . . . . . . . . . . . . . . . . . . . . . . . . . . . . . . . . . . . . . . . . . . . . . . . . # . . . ",
". . . . . . . . + # . . . . . . . . . . . . . . . . . . . . . . . . . . . . . . . . . . . . . . . . . . . . . . . . . . . . . + b @ . . ",
". . . . . . . . # l . . . . . . . . . . . . . . . . . + + . . . . . . . . . . . . . . . . . . . . . . . . . . . . . . . . . . . @ . . . ",
". . . . . . . . . . . . . . . . . . . . . . . . . . . X + 6 6 6 6 6 1 + . . . . . . . . . . . . . . . . . . . . . . . . . . . . . . . . ",
". . . . . . . . . . . . . . . . . . . . . . . . . . + + v '.`.`.`.`.G.1   . . . . . . . . . . . . . . . . . . . . . . . . . . . . . . . ",
". . . . . . . . . . . . . . . . . . . . . . . . . . > { '.XX XXX X XXXF.1 . . . . . . . . . . . . . . . . . . . . . . . . . . . . . . . ",
". . . . . . . . . . . . . . . . . . . . . . . . + # G. X X XoX$X1X#X.X|.{ , . . . . . . . . . . . . . . . . . . . . . . . . . . . . . . ",
". . . . . . . . . . . . . . . . . . . . . . . . + 6 +X X X XXX+X&X<X$X.X|.T.1 . . . . . . . . . . . . . . . . . . . . . . . . . . . . . ",
". . . . . . . . . . . . . . . . . . . . . . . . . C XX X X X X X.X$X2X&XoX`.u @ . . . . . . . . . . . . . . . . . . . . . . . . . . . . ",
". . . . . . . . . . . . . . . . . . . . . . . . # D.XX X X X X XXX.X<X3X$XoX).O . . . . . . . . . . . . . . . . . . . . . . . . . . . . ",
". . . . . . . . . . . . . . . . . . . . . . . . v ].XXXXXX X X X X.X%X2X$X.X'.3 . . . . . . . . . . . . . . . . . . . . . . . . . . . . ",
". . . . . . . . . . . . . . . . . , . . @ . X $ J I.+X XXXXX X X XXX%X*X#X+XP.J 5 + . . . . . . . . . . . . . . . . . . . . . . . . . . ",
". . . . . . . . . . . . . . . . @ b + . O 2 u ( X.+._.(.|. X X X XXXoX|.OX_.L L J $ . . . . . . . . . . . . . . . . . . . . . . . . . . ",
". . . . . . . . . . . . . . . . . . + X = -.W.Q.>...L ..P._.@X@X.X|.XX+XI.K.P +.U. .. . . . . . . . . . . . . . . . . . . . . . . . . . ",
". . . . . . . . . . . . . . . . . % t i :.Q.E.2.%.R.o.X.+.P ..H.P.P.P.H.....L.}  .}.) 8 . . o . . . . . . . . . . . . . . . . . . . . . ",
". . . . . . . . . . . . . . . . . q f ` E.E.*.;.;.;./ ;.:.@.@.L O.X.@.#.,.<.~.>.p | }.B 0 7 # . . . . . . . . . . . . . . . . . . . . . ",
". . . . . . . . . . . . . . . . . < r M :.2.*.W.E.] ' 1.3.8.8.,.,.9.5.5.3.3.7.^.) p @.G f e 7 . . . . . . . . . . . . . . . . . . . . . ",
". . . . . . . . . . . . . . . . . . 7 e m -.E.W.~.] [ 2.3.6.6.6.6.6.6.6.6.7.!.~./.^ V A f 0 # . . . . . . . . . . . . . . . . . . . . . ",
". . . . . . . . . . . . . . . . . . + 7 r M  .^.{./ ' %.5.4.6.6.4.5.5.4.1.%.&.[./.G f 0 4 @ . . . . . . . . . . . . . . . . . . . . . . ",
". . . . . . . . . . . . . . . . . . o + 7 e f m Y. ._ / $.=.=.=.=.[ ] ' / ^ i Z A 0 # o o o . . . . . . . . . . . . . . . . . . . . . . ",
". . . . . . . . . . . . . . . . . . . . . % 7 e h M N N ~ ! ! ! ! ! ^ N N n g k 7 4 . o . . . . . . . . . . . . . . . . . . . . . . . . ",
". . . . . . . . . . . . . . . . . . . . o . + * W Y k h g d d d d d d f h T Q g.. o . . . . . . . . . . . . . . . . . . . . . . . . . . ",
". . . . . . . . . . . . . . . . . . . . . . . % W k.k.l.j.x.x.c.c.h.h.h.V.B.B.q.. . . . . . . . . . . . . . . . . . . . . . . . . . . . ",
". . . . . . . . . . . . . . . . . . . . . . . o y z.b.b.m.Z.,XZ.,XZ.Z.A.C.d.d.0.. . . . . . . . . . . . . . . . . . . . . . . . . . . . ",
". . . . . . . . . . . . . . . . . . . . . . . . % R i.p.N.m.M.M.m.m.n.d.s.a.u.w o . . . . . . . . . . . . . . . . . . . . . . . . . . . ",
". . . . . . . . . . . . . . . . . . . . . . . . . O s t.y.y.f.a.y.i.r.p.e.- X . . . . . . . . . . . . . . . . . . . . . . . . . . . . . ",
". . . . . . . . . . . . . . . . . . . . . . . . . . $ ; a w.q.w E a - a ; . . . . . . . . . . . . . . . . . . . . . . . . . . . . . . . ",
". . . . . . . . . . . . . . . . . . . . . . . . . . o : + j ; o & . . + + . . . . . . . . . . . . . . . . . . . . . . . . . . . . . . . ",
". . . . . . . . . . . . . . . . . . . . . . . . . . o . + o . o . . . . . . . . . . . . . . . . . . . . . . . . . . . . . . . . . . . . ",
". . . . . . . . . . . . . . . . . . . . . . . . . . . . . o . . . . o o . . . . . . . . . . . . . . . . . . . . . . . . . . . . . . . . ",
". . . . . . . . . . . . . . . . . . . . . . . . . . . . . . . . . . . . . . . . . . . . . . . . . . . . . . . . . . . . . . . . . . . . ",
". . . . . . . . . . . . . . . . . . . . . . . . . . . . . . . . . . . . . . . . . . . . . . . . . . . . . . . . . . . . . . . . . . . . ",
". . . . . . . . . + @ . . . . . . . . . . . . . . . . . . . . . . . . . . . . . . . . . . . . . . . . . . . . . . . . . . . . . . . . . ",
". . . . . . . . . , c . . . . . . . . . . . . . . . . . . . . . . . . . . . . . . . . . . . . . . . . . . . . . . . . . . . . . . . . . ",
". . . . . . . . . . . . . . . . . . . . . . . . . . . . . . . . . . . . . . . . . . . . . . . . . . . . . . . . . . . . . . . . . . . . ",
". . . . . . . . . . . . . . . . . . . . . . . . . . . . . . . . . . . . . . . . . . . . . . . . . . . . . . . . . . . . . . . . . . . . ",
". . . . . . . . . . . . . . . . . . . . . . . . . . . . . . . . . . . . . . . . . . . . . . . . . . . . . . . . . . . . . . . . . . . . ",
". . . . . . . . . . . . . . . . . . . . . . . . . . . . . . . . . . . . 5 9 . . . . . . . . . . . . . . . . . . . . . . . . . . . . . . ",
". . . . . . . . . . . . . . . . . . . . . . . . . . . . . . . . . . . . @ @ . . . . . . . . . . . . . . . . . . . . . . . . . . . . . . ",
"# # # # # # # # # # # # # # # @ . . . . . . . . . . . . . . . . . . . . . . . . . . . . . . . . . . . . . . . . . . . . . . . . . . . . ",
"z F S.I U P U S.J.S.J.I I K x 3 . . . . . . . . . . . . . . . . . . . . . . . . . . . . . . . . . . . . . . . . . . . . . . . . . . . . ",
"z z -X=X;X=XP P >X-XP ;X;X:XH 3 . . . . . . . . . . . . . . . . . . . . . . . . . . . . . . . . . . . . . . . . . . . . . . . . . . . . ",
"q q S D S b x x S b x b F F z , . . . . . . . . . . . . . . . . . . . . . . . . . . . . . . . . . . . . . . . . . . . . . . . . . . . . ",
"@ @ @ @ @ @ @ @ @ @ @ @ @ @ # @ . . . . . . . . . . . . . . . . . . . . . . . . . . . . . . . . . . . . . . . . . . . . . . . . . . . . "
};
