/* XPM */
static char *e4da1eec63d94223af8d0ce6b5b5745dhdr0HaEwP791z31u[] = {
/* columns rows colors chars-per-pixel */
"32 32 214 2 ",
"   c #2B272E",
".  c #28282F",
"X  c #3E2026",
"o  c #35242A",
"O  c #3A2629",
"+  c #34292D",
"@  c #3B2B2C",
"#  c #35322F",
"$  c #581A1C",
"%  c #661D1B",
"&  c #701A16",
"*  c #6B221C",
"=  c #411F24",
"-  c #462023",
";  c #432C2B",
":  c #4C2827",
">  c #5A2A26",
",  c #532B28",
"<  c #572725",
"1  c #43342B",
"2  c #5D3327",
"3  c #563529",
"4  c #5C3128",
"5  c #513A2C",
"6  c #632B25",
"7  c #6D2F25",
"8  c #7C2B22",
"9  c #722E23",
"0  c #643227",
"q  c #643627",
"w  c #763724",
"e  c #6B4026",
"r  c #764B24",
"t  c #8D2F1E",
"y  c #832A1D",
"u  c #80301F",
"i  c #8E311D",
"p  c #93331F",
"a  c #9C351D",
"s  c #9D3D1F",
"d  c #942B1D",
"f  c #AB210D",
"g  c #AF361B",
"h  c #A93D1C",
"j  c #B93818",
"k  c #AA2812",
"l  c #883922",
"z  c #923A21",
"x  c #C1320E",
"c  c #CC3712",
"v  c #C83C17",
"b  c #D23C11",
"n  c #D93512",
"m  c #E62B0F",
"M  c #E63F0F",
"N  c #9A491E",
"B  c #A9451F",
"V  c #AE481E",
"C  c #A5431E",
"Z  c #BE401A",
"A  c #B54C19",
"S  c #B4471C",
"D  c #A5531F",
"F  c #B95F1C",
"G  c #A2621D",
"H  c #8B4521",
"J  c #954322",
"K  c #924821",
"L  c #985326",
"P  c #A05321",
"I  c #B87429",
"U  c #B86925",
"Y  c #957330",
"T  c #D65E0E",
"R  c #C54C19",
"E  c #C84A18",
"W  c #DD4A15",
"Q  c #C65E1C",
"!  c #D75616",
"~  c #E64B0F",
"^  c #E5450F",
"/  c #E6540F",
"(  c #E65C0F",
")  c #E74412",
"_  c #EB4612",
"`  c #E74D12",
"'  c #ED4E12",
"]  c #F04D14",
"[  c #E75413",
"{  c #EF5413",
"}  c #E55D12",
"|  c #E85C18",
" . c #F05814",
".. c #CC691A",
"X. c #DF6213",
"o. c #CF7B1E",
"O. c #D87416",
"+. c #E6640F",
"@. c #E66C0F",
"#. c #E6740F",
"$. c #E67D0F",
"%. c #E66313",
"&. c #EC6513",
"*. c #E66A13",
"=. c #EA6B17",
"-. c #F06917",
";. c #E67314",
":. c #ED7512",
">. c #E67C13",
",. c #E77619",
"<. c #E87A1A",
"1. c #F07C13",
"2. c #F1731A",
"3. c #F17C1C",
"4. c #CC6E22",
"5. c #C37E23",
"6. c #D97628",
"7. c #D26032",
"8. c #D46B27",
"9. c #F17720",
"0. c #E66A32",
"q. c #E4713E",
"w. c #DB831C",
"e. c #E68A1B",
"r. c #E98A1D",
"t. c #E98718",
"y. c #F08416",
"u. c #F1831B",
"i. c #F1891B",
"p. c #EC941C",
"a. c #EB9E1C",
"s. c #EC9417",
"d. c #F1951E",
"f. c #DB8725",
"g. c #CE952C",
"h. c #DD9A2D",
"j. c #D49231",
"k. c #D7833B",
"l. c #E58927",
"z. c #EB8C25",
"x. c #E88620",
"c. c #F28827",
"v. c #EB9523",
"b. c #E99A24",
"n. c #EA9B2B",
"m. c #E59829",
"M. c #F29F25",
"N. c #F29729",
"B. c #EBAE26",
"V. c #EAA72B",
"C. c #F2A324",
"Z. c #F2A32B",
"A. c #F2AC2A",
"S. c #EDB82C",
"D. c #F1B32C",
"F. c #E3AD31",
"G. c #EAA835",
"H. c #EDB334",
"J. c #EEBC3F",
"K. c #F2BB32",
"L. c #F2B534",
"P. c #E9C737",
"I. c #F1C334",
"U. c #F0CD3A",
"Y. c #EDD23A",
"T. c #EED93C",
"R. c #F0D138",
"E. c #ECE13B",
"W. c #D9834A",
"Q. c #DC9F4B",
"!. c #D78D5A",
"~. c #EA8D5F",
"^. c #E09551",
"/. c #E6984F",
"(. c #DCB657",
"). c #EFBA44",
"_. c #E4A25B",
"`. c #EEB654",
"'. c #EDB14A",
"]. c #E0866A",
"[. c #E6BA6D",
"{. c #EFAC79",
"}. c #E0BD73",
"|. c #EBC74B",
" X c #F2CC49",
".X c #EFDB44",
"XX c #EECB5D",
"oX c #F1C055",
"OX c #EEDF53",
"+X c #F1D753",
"@X c #EDE449",
"#X c #EFE85D",
"$X c #F2CC69",
"%X c #F0DB6A",
"&X c #F2DA7A",
"*X c #F0CA78",
"=X c #F0E563",
"-X c #F1E46F",
";X c #F1E974",
":X c #E1A986",
">X c #F3DB89",
",X c #EECA94",
"<X c #F2DD99",
"1X c #F5C187",
"2X c #F1EC83",
"3X c #F3EC93",
"4X c #F0D9AD",
"5X c #F2DCBC",
"6X c #F4EFA3",
"7X c #F5E6AA",
"8X c #F3E9B1",
"9X c #F0D7C3",
"0X c #F6F4CA",
"qX c #F6E9C6",
/* pixels */
". . . . . . . . . . . . . . . . . . . . . . . . @ - . . . 1 1 ; ",
". . . . . . . . . . . . . . . . . . . . . . . @ *   . > r G 3 z ",
". . . . . . . . . . . . X o . . . . . . . . @ % . + 8 L F   R f.",
". . . . . . . . . . . l <   . . . . . . . 1 u   , H o.4.@ I A.E.",
". . . . . . . . . . > s 0 . . . . . . . w H 0 0 ! <.6.5 I D.@X6X",
". . . . . . . . .   k g . .   . . . . B X.t R *.v.Y 5.g. X-X2X>X",
". . . . . . . . . y t   . + o . .   2 a ! &.1.i.h.F.D. X;X=X=XZ.",
". . . . . . . . 2 l @ . > : o . 1 A v W :.1.i.C.C.R.$X3XOX Xc...",
". . . . . . . . p + > h O 9 @ P f.p.r.:.d.2.9.S.OX8X6X.XK.N.4.# ",
". . . . . .   @ g ! R a E A O.v.z.v.V.n.[ r.`.7X0X&XU.L.1.Q @ = ",
". . . . . . : s W  .=.V.;.*.$.>.;.t.n.>.>.[ 0.{.+XL.c.u.V O O $ ",
". . . . . . w -.1.:.l.P.<.+.#.#.>.z.x.>.>.} +.@.z.2.N.J ; > y X ",
". . . . . . V 3.y...w.m.S.>.e.$.>.#.#.( e.r.$.$.| u.K , g j 6 . ",
". . . . . . U C.r.8.[.G.a.$.a.s.:.@.$.+.@.;.b.,.n x b f w ; . . ",
". . . . .   D A.W._.4X,Xw.e.y.B.:.@.#.( #.} *./ n c c h ; . . . ",
". . . . . S V K.8XoX$X%X XG.`.V.b.z.t.>.;.$.( ~ m ] u   . . . . ",
". . . . . E y.R.&XXXv.G.0X>X'.B.b.P.H.n.V.#.[ } / $ . o . . @ @ ",
". . . . . p y.I.Q.!.6.).0X|.G.*.$.%.t.%.` ( ( ` ! O >   @ d 6 . ",
". . . . . Z y.I.F.!.*XJ./.Q q./ #.%.z.} +.#.#.+.a Z : i , 6 . . ",
". . . . . E M.Y.=X_.`.7X6.7X<X) ~ ,.) ,.( ;.;./ n & : j j @ . . ",
". . . . . J A.K.#XqX).(.P.9X&XV.T ) ` %.( @.@.+.7 s 8 2 + . . . ",
". . . . . l u.K.#X&Xh.Y.s.:X7.6.O.~ %.[ +.@.+.@.' z . 0 4 @ . . ",
". . . . . @ &.A.T.%X[.j.l.%.].5X6.0.M ~ &.{ &.1.{ s j h p w . . ",
". . . . . . C y.I.@X'.[.k.}.W.1X^.~._ -. .2.| b _ a 4   . . . . ",
". . . . . .   A d.K.T.@X.X@XY.P.H.v.).-.u.T b : %   . . . . . . ",
". . . . . . .   J ;.d.Z.M.C.2.9.M.z.1.} i - +   . . . . . . . . ",
". . . . . . . . . 4 N ! { { -.-.-.B 0 3 ,   . . . . . . . . . . ",
". . . . . . . . . . . + @ @ e 0 q 2 ;   . . . . . . . . . . . . ",
". . . . . . . . . . . . . . . . . . . . . . . . . . . . . . . . ",
". . . . . . . . . . . . . . . . . . . . . . . . . . . . . . . . ",
". . . . . . . . . . . . . . . . . . . . . . . . . . . . . . . . ",
". . . . . . . . . . . . . . . . . . . . . . . . . . . . . . . . "
};
