/* XPM */
static char *_f87eaaf1df048c6c36a974d52aec701qR2V4qql3OMWiato[] = {
/* columns rows colors chars-per-pixel */
"84 60 212 2 ",
"   c #000000",
".  c #03040B",
"X  c #07090F",
"o  c #0A0A0D",
"O  c #010215",
"+  c #0D0D12",
"@  c #01021C",
"#  c #030A1A",
"$  c #0C111D",
"%  c #111116",
"&  c #13131C",
"*  c #010122",
"=  c #040E24",
"-  c #01022C",
";  c #08082C",
":  c #090F21",
">  c #0C1325",
",  c #161621",
"<  c #1A1A24",
"1  c #1C1C2B",
"2  c #020233",
"3  c #02023D",
"4  c #080E39",
"5  c #031131",
"6  c #161937",
"7  c #1A2035",
"8  c #22232B",
"9  c #252536",
"0  c #24243B",
"q  c #2A2B3B",
"w  c #2C2C34",
"e  c #010343",
"r  c #030947",
"t  c #0B0E45",
"y  c #030C4B",
"u  c #090D4D",
"i  c #0A134C",
"p  c #0C1445",
"a  c #1B1B40",
"s  c #021353",
"d  c #0A1252",
"f  c #031857",
"g  c #021C5B",
"h  c #0C1B5A",
"j  c #141555",
"k  c #1B1B5B",
"l  c #141D5C",
"z  c #162247",
"x  c #152157",
"c  c #2D2D42",
"v  c #2C2F4F",
"b  c #232848",
"n  c #29324D",
"m  c #2C2C54",
"M  c #28285D",
"N  c #222856",
"B  c #25335F",
"V  c #343455",
"C  c #3A3A52",
"Z  c #3F3F5E",
"A  c #37375C",
"S  c #022161",
"D  c #0B2565",
"F  c #0C2867",
"G  c #062969",
"H  c #0C2B6B",
"J  c #062768",
"K  c #1B2363",
"L  c #152864",
"P  c #122D6C",
"I  c #1E2C6B",
"U  c #0B306F",
"Y  c #0C3373",
"T  c #153373",
"R  c #1B3575",
"E  c #1A3B7B",
"W  c #153B7A",
"Q  c #262D6C",
"!  c #262965",
"~  c #26346E",
"^  c #353469",
"/  c #363C6A",
"(  c #233675",
")  c #203877",
"_  c #243B7B",
"`  c #2A3D7C",
"'  c #2A3170",
"]  c #3B3C7C",
"[  c #343C7C",
"{  c #1A407F",
"}  c #2A417E",
"|  c #444459",
" . c #4A4B6B",
".. c #474865",
"X. c #59596D",
"o. c #545465",
"O. c #40407A",
"+. c #474A76",
"@. c #56567C",
"#. c #144384",
"$. c #1D4584",
"%. c #1F4D8D",
"&. c #1D4887",
"*. c #264382",
"=. c #2C4484",
"-. c #224A8B",
";. c #2F4A8B",
":. c #324484",
">. c #344A85",
",. c #3C4D83",
"<. c #364A8A",
"1. c #3C4C8C",
"2. c #39518F",
"3. c #36508E",
"4. c #294F90",
"5. c #215393",
"6. c #275896",
"7. c #3D5392",
"8. c #3F63A3",
"9. c #424383",
"0. c #444B87",
"q. c #4B4C81",
"w. c #424D8D",
"e. c #4C4D8D",
"r. c #4C548B",
"t. c #465689",
"y. c #555585",
"u. c #435494",
"i. c #465A93",
"p. c #475A9A",
"a. c #4C5B9B",
"s. c #565B93",
"d. c #535C9C",
"f. c #575795",
"g. c #5D638B",
"h. c #4C6296",
"j. c #4B639D",
"k. c #51629B",
"l. c #566093",
"z. c #676886",
"x. c #767689",
"c. c #737386",
"v. c #6A6A9E",
"b. c #636596",
"n. c #7A7A96",
"m. c #4F60A0",
"M. c #5462A2",
"N. c #5B64A4",
"B. c #5E6AA6",
"V. c #5D6AAA",
"C. c #5878B7",
"Z. c #5774B4",
"A. c #646EA7",
"S. c #6D6FA4",
"D. c #646CAB",
"F. c #6C6FAC",
"G. c #6464A2",
"H. c #6474A7",
"J. c #6A75AC",
"K. c #7171A4",
"L. c #7271AB",
"P. c #6B74B2",
"I. c #637CBB",
"U. c #7475B5",
"Y. c #727DB4",
"T. c #7C7DB4",
"R. c #747ABA",
"E. c #7B7CBC",
"W. c #7480AE",
"Q. c #6D8CBF",
"!. c #6480BA",
"~. c #7C83BB",
"^. c #7788B9",
"/. c #6E86C3",
"(. c #7586C4",
"). c #8787A7",
"_. c #8383B2",
"`. c #8484BB",
"'. c #848ABC",
"]. c #8E8EBB",
"[. c #808BB6",
"{. c #9899B6",
"}. c #8283C2",
"|. c #848BC4",
" X c #8A8AC7",
".X c #848BCB",
"XX c #8B8CCC",
"oX c #8790C0",
"OX c #8A93CA",
"+X c #9293CC",
"@X c #989AC8",
"#X c #8F90D0",
"$X c #9393D2",
"%X c #9A9BD4",
"&X c #9C9CDA",
"*X c #9598D6",
"=X c #97A7CF",
"-X c #A2A3CD",
";X c #ABACCE",
":X c #A3A5D3",
">X c #A9AAD5",
",X c #A4A4DC",
"<X c #AEAEDD",
"1X c #A9A9DB",
"2X c #ADB1DD",
"3X c #B4B4DE",
"4X c #B6B9DD",
"5X c #BABCDC",
"6X c #A9A9E0",
"7X c #B6B6E1",
"8X c #BDBDE0",
"9X c #C0C1E0",
/* pixels */
"                                                                                                                                                                        ",
"                                                                                                                                                                        ",
"                                                                                                                                                                        ",
"                                                                                                                                                                        ",
"                                                                                                                                                                        ",
"                                                                                                                                                                        ",
"                                                                                                                                                                        ",
"                                                                                                                                                                        ",
"                                                                                                                                                                        ",
"                                                                                                                                                                        ",
"                                                                                                                                                                        ",
"                                                                              o o + + o o                                                                               ",
"                                                                        & 1 8 `.@X8X8X>X Xq 8 , .                                                                       ",
"                                                                    1 .._.+X>X<X3X7X6X6X1X>X;X].X.9                                                                     ",
"                                                              o < z.].&X,X&X*XXX*X|.|.P.E.}.1X<X3X-Xn.8 +                                                               ",
"                                                            . | ).+X}.}.}.$X$XXXV..XH.^.<.u.|.$X%X%X<X{.@.o                                                             ",
"                                                          . X.,X&Xu.u.a.M.P.d.P.R.a.k.:XM.a.N.D.D.d.*X7X8Xx.o                                                           ",
"                                                        . z.%X#XE.P u.p.R u..XR a.$X+XB.` -X[.R V.=.I.,X4X4X{.o                                                         ",
"                                                      . X.'.B.M.=.R u._ h.P ` >.~.:XY.` i.[.>._ T Y -.(.!.(.=Xc.o                                                       ",
"                                                      o.,XY.P.k.1.p.W U $.<._ H.M.2.*.E H F S S S S #.OXj.8.I.5Xx..                                                     ",
"                                                      {.$X|.=.P M.;.#.H u.=.a.>.%Xj.H J S S S S S S G h.^.$.R.Q.9Xo                                                     ",
"                                                  . n.3X$X:.F u.a.` =.:._ H T _ 3.*.J S J S S S J S S Y 6.Y P /.2X).%                                                   ",
"                                                  w @X&X1XB._ u.u.<.S F P u.<.T H S Y S Y S J $.&.H S J F J :.5.(.>X|                                                   ",
"                                                . g.6XE.Y.M.R D.<.S S W m.a.H S S S H S S J { C.Q.%.F F E T 7.*.(.,Xn.                                                  ",
"                                                $ W.,XD.Y.>.=.a.H S =.=.T P S S S S S S S J $.Z./.5.F S G H H.%./.+X).+                                                 ",
"                                                8 :X X} oXP.~.=.S H D g S S S S S S S S S S J $.-.H S S S S F R M.D.:X...                                               ",
"                                              . n 1X*XV.k.k.i.S S D y s g S S S S S S S S S S F H S S S S S S R *.u.Y.i.:                                               ",
"                                              X ,.+XR.u.P.4.J s s y s s g S S S S S S S S S S S S S S S S S S S a.` R.~.q                                               ",
"                                              % _.$Xa.F.Q s f e e y g s g S S S S S F S S S S S S S S S S F S J F a.7.A.c                                               ",
"                                              + T.$Xa.N.y e s e y f s s g S S S S S S S S S S S S S S S S S S S =.M.1.A.c                                               ",
"                                              X t.XX) Q y e s e s P _ s g :._ F H S S S S S S S S S S S S S #.F N.T u.J.c                                               ",
"                                              X t.XX) d.u e y e D H S s P >.` E S S S S S S S S S S S S S S S R 1.P 2.T.c                                               ",
"                                              + l.XX) u.` e e y f R ( s g f a.T S S S S S S S S S S S S S S S S ` R a.F.q                                               ",
"                                              . B  XU.v i e e r [ ) u.h y P =.S g S S S S S S S S S S S S S #.g g J u.w.>                                               ",
"                                                9  X}.+.- k k y h h u.:.d [ _ f s S S S S S S S S S S S S S G g g D a./ #                                               ",
"                                                + b.f.a b ^ ] ! u 9.P.1.P 1.T f g g f g g S S S S S S g g f g g f e.K.<                                                 ",
"                                                   .U.s.O.6 3 9.U.P.d.U.d.H h g g g e s s g S S S S S y y g y T y u.g.                                                  ",
"                                                  C E.R.r.^ A G.w.j e.] d f s y e s f f g g g g S g g g g y u L u p. .                                                  ",
"                                                  . b.R.! v S.m 0 r.f.k y y y y e e e s s e e g s s g s y y F K :.`.%                                                   ",
"                                                    & S.F.M V L.S.Q h ] j y y e r y e e e e e f g s e e e e d <.|.8 .                                                   ",
"                                                      @.}.U.L.E.0.I r t 2 e e e e e e e e s y e e e 2 e h P 1.1.S..                                                     ",
"                                                      o y.E.}.R.] Q Q M @ - @ 2 - - 2 2 u h e e 3 3 p d R R u.K.,                                                       ",
"                                                        , v.}.M.w.k w.w.6 * O @ 2 2 @ p T d u d 2 * u u _ 7.}.9                                                         ",
"                                                          o @.E.P.! e.M.p . @ . O * O O t y 5 @ @ O 2 P =.s.,                                                           ",
"                                                            + y.D.U.9.f.' q.+.; @ m q./ x =   @ r ' ` P.b.<                                                             ",
"                                                              , c v.G.0.f.R.R.r.+./ V N 4 : z x :.D.F.C 9                                                               ",
"                                                                  % V s.N.a.a.u.K l L i ~ ,.7.a.d...&                                                                   ",
"                                                                      # z Z O.a.M.M.M.M.M.0.Z b =                                                                       ",
"                                                                            O 6 c c c c 7 #                                                                             ",
"                                                                                                                                                                        ",
"                                                                                                                                                                        ",
"                                                                                                                                                                        ",
"                                                                                                                                                                        ",
"                                                                                                                                                                        ",
"                                                                                                                                                                        ",
"                                                                                                                                                                        ",
"                                                                                                                                                                        ",
"                                                                                                                                                                        ",
"                                                                                                                                                                        ",
"                                                                                                                                                                        "
};
