/* XPM */
static char *_679737ec9284200842ee10c13b6475c[] = {
/* columns rows colors chars-per-pixel */
"64 64 162 2 ",
"   c #0E050B",
".  c #10060E",
"X  c #12090E",
"o  c #130711",
"O  c #140A13",
"+  c #190D16",
"@  c #160E19",
"#  c #190E19",
"$  c #1A1116",
"%  c #16121D",
"&  c #19121D",
"*  c #20151E",
"=  c #251C1D",
"-  c #171422",
";  c #1A1522",
":  c #171825",
">  c #191826",
",  c #171A2A",
"<  c #191B2B",
"1  c #1A1F32",
"2  c #231721",
"3  c #221720",
"4  c #221922",
"5  c #241821",
"6  c #251923",
"7  c #241822",
"8  c #261B23",
"9  c #251C21",
"0  c #201926",
"q  c #201A26",
"w  c #241B26",
"e  c #261C24",
"r  c #241923",
"t  c #281C26",
"y  c #291D27",
"u  c #281E26",
"i  c #291D27",
"p  c #221E29",
"a  c #231D29",
"s  c #241E2A",
"d  c #221E2C",
"f  c #2A1E28",
"g  c #1C202F",
"h  c #1B2031",
"j  c #192033",
"k  c #192032",
"l  c #1A2032",
"z  c #1C2033",
"x  c #1D2134",
"c  c #1C2336",
"v  c #1A2134",
"b  c #1C263A",
"n  c #1D293D",
"m  c #2B2227",
"M  c #26202C",
"N  c #24212D",
"B  c #2D222A",
"V  c #2D212B",
"C  c #28202C",
"Z  c #2F232D",
"A  c #2F252D",
"S  c #2C222C",
"D  c #332A24",
"F  c #31252F",
"G  c #31262F",
"H  c #242331",
"J  c #222334",
"K  c #292732",
"L  c #2C2733",
"P  c #252A36",
"I  c #2F2931",
"U  c #2A2837",
"Y  c #202639",
"T  c #232639",
"R  c #272938",
"E  c #22293C",
"W  c #22293D",
"Q  c #2B2D3B",
"!  c #2C2C3C",
"~  c #322630",
"^  c #332731",
"/  c #322830",
"(  c #352B33",
")  c #342B34",
"_  c #362A34",
"`  c #332832",
"'  c #382F34",
"]  c #382C36",
"[  c #382C36",
"{  c #312F3A",
"}  c #3A2F39",
"|  c #2E303F",
" . c #33313F",
".. c #3C303A",
"X. c #3C313A",
"o. c #1D2D44",
"O. c #1E2F48",
"+. c #1E3047",
"@. c #1E334C",
"#. c #222D43",
"$. c #2A2F43",
"%. c #202E48",
"&. c #233146",
"*. c #2B3245",
"=. c #2B3346",
"-. c #2B3244",
";. c #22334C",
":. c #2B354C",
">. c #343445",
",. c #3E3743",
"<. c #3D3845",
"1. c #353B4E",
"2. c #32394C",
"3. c #3F3D4B",
"4. c #223750",
"5. c #243952",
"6. c #2A3B54",
"7. c #373E51",
"8. c #313C52",
"9. c #463F47",
"0. c #453943",
"q. c #483C46",
"w. c #403E4C",
"e. c #493F49",
"r. c #2E4057",
"t. c #2D415A",
"y. c #354155",
"u. c #33445D",
"i. c #394358",
"p. c #374A60",
"a. c #42424F",
"s. c #4E464F",
"d. c #4D434B",
"f. c #474552",
"g. c #4F4E5D",
"h. c #564C55",
"j. c #554F5C",
"k. c #464F62",
"l. c #435065",
"z. c #4C5467",
"x. c #46576E",
"c. c #4B576B",
"v. c #4E5B6E",
"b. c #52596D",
"n. c #485C73",
"m. c #635861",
"M. c #605A66",
"N. c #695D67",
"B. c #54647D",
"V. c #5D6879",
"C. c #70676C",
"Z. c #6A6876",
"A. c #716870",
"S. c #7C6F79",
"D. c #817780",
"F. c #827880",
"G. c #837882",
"H. c #808798",
"J. c #878F9E",
"K. c #938991",
"L. c #91919C",
"P. c #9F97A2",
/* pixels */
"o o o o o o o o o o o o o                                               +           . $ o o o o .                               ",
"o o o o o o + & o o o O .                                                       . . . O O o o                         . X       ",
"o o o o o o o + o o o o .                                   .               . O O . . O o o .         .               $ *   . X ",
"o o o o o o # ] o + & .                                                     .   . . o o o o         $ O                 .   X X ",
"o o O o o o + y o O +                                                     +   . . . O o o o         O .               X $       ",
"+ + = o o o o o o O .                                       O +           .   o o o o & & o .                   O               ",
") s.O o o o o o o O .         . .     O                     * $             . O o o o + + o .   .                   X   m       ",
"I 9.O o o o o o o $   . .     O y     ( +           O       & +           O e o o o o o o # . . O .                 .           ",
"% - @ + + O o o o .           + O   O F./                                         O & o O ..O . o . .               X           ",
"% - % & h.# o o o           . 7 +     * O                     . .   + O           . o o o O + o o O .               $       X X ",
"% % % @ w + o o o .         . B &                           . + O . + O           . o o o o o o o .                 .         & ",
"% % % > @ o o o o o   .     . O o     .           .         . A O O .     + O     . o o o o o o o .                             ",
"% % % @ O + + o & .   O . o o o o . o o .         . .   X . . O $ 4 O o o S ; O O o o o o o o o o o O                           ",
"% % % O o o o o O .   . o o o o o o o o . .     . o o o O o o O 4 I + + O # @ & @ O o o o o o o O O O                           ",
"% > % O o o o o . o o . o o o o + o o o o o o o o o D O O O + @ & & & & % ; & & @ + o + o o o o o o . .         X ' X           ",
"% % @ O o o o . .     O 7 + o o ~ o o o & O + + + + @ @ @ & & & & & & - - - & & & + o o o o o o o + + 7 O       O C.$           ",
"% % O o o o o     . O o o o o o o o o o o @ & & & s & & & - - & & & ; , , E : - - q # o o o o o o q.~ O o . . . O +     X       ",
"% & O o o o . . o & O 7 o o o o o o o o o @ & p ; & & & K : : - - : , , < h < , ; - & @ o o o o o + + o o o o o O Z     O X     ",
"% % o o o .   o + F ) & 2 o o o o & o o o @ & M q & & - < , , , , , < 1 h T c < , : - - O o o o o o o o o o o o y o       O     ",
"% % O o o . .   . . o * ) O o o o o o o o & & & & & & H Q , , , 1 1 1 1 h =.W h < , , & + o o # o o O O o o o o * y             ",
"% % + o . B 7       o O + o o o o o o o + p ; ; & & % , , , , < 7.h 1 1 1 c 1.=.h < , > & O o # o o o O o o o O m.D.O . X     9 ",
"; > % & # F.A.o . o o o o o o o O O O o + p ; & & & - : , , < h b b b v v v =.#.v 1 < : % @ o o o o o o o o o o F e.. O &     X ",
"; ; % ; # q.} + + + o o o + o o o ~ 0.o + @ & & & & - - , , c -.b b b b b b b v c 1 < , - & + o o o o o o o o o O + . . + O   X ",
"< ; - + o O O o o + # o o . . . . B } + o @ @ % & & & - ; , 2.H.n b n n b b b v 1 1 < , ; & @ + o o o o o ] o + o o O . . .     ",
": : - @ o o o o o + & o . . . . . o O O o A $ & & & & <., , 2.J.W b n n n n i.b v 1 1 , , ; % % O o o o o O o o o o o . . .     ",
": : - @ o o o o + O o o . . . . . . . . o O O ; ; & & > , , c -.b b n n o.o.o.n b c J , , >.- % + o o O o o o o o o o o . O .   ",
": : - @ o o o o o o o + & . O . . . . . o o O @ & ; - < , < E -.v b b n o.o.o.o.%.b 1 , , J - & & + o o o o o o o o o o o o     ",
", : > + o o o o o . + . o . . . . . . . o o O + & { , < < 1 1 h E b b n o.o.o.o.o.b h , , - % & - $ o * + o o o o o o o o o o . ",
"g J < @ o o o o o . o . . . . . O . . . o o O O & : , 1 1 1 1 1 v v b n o.o.o.o.o.n v < , : < - & $ O + & o o + + o o o o O ..O ",
"h , ; @ o o o o . . . . . / O . . . . . o o o o & : , 1 1 T 1 1 v v b n o.;.+.o.o.o.v h < 1 g.H & $ + + 2 O o o + # * & * O 4 % ",
"h < , & o o o o . . . . . . . . . O . . o o o O & : , 1 1 1 1 1 $.b b n o.;.r.o.o.o.b h v < < - & q O o o o o o o + # & 2 o % % ",
"h h , % O o o . . . . . . . . . . O . . o o o O & : , < 1 1 1 v 2.b b o.o.;.;.o.o.o.b v W c , ; & + O o o o o + o o o o o O % % ",
"c h < - + o . 0.. O O . . . . . O . . . + o o O & ; , < 1 1 1 v b b n o.;.;.5.o.o.o.b b =.W < : - $ O O o o y + o o o o o O @ % ",
"b v 1 : @ o . + . O $ . . . . . $ . . . + + o O & - , < 1 1 c v b b n o.o.;.6.+.;.o.n b b c 1 , U s O O o o o o o o o o o o @ % ",
"n n W T % o . . . . . . . . . . B . . . o o o O & & ; < 1 v E b b n o.o.o.o.;.;.o.o.o.#.b v 1 < , & o o o o o o o o o o o O & % ",
"o.#.W c - O . . . . . . . . . . . . . . o o o O & & ; < 1 v =.b b n o.o.o.o.6.B.O.o.o.n n b 1 1 : % O o o o o o o o o o o O e.@ ",
"%.%.n h ; + . . . . . . . . 7 O . . . . o o o o & { < < 1 v n b n o.o.o.o.o.x.u.o.o.o.o.o.#.v 1 : % O O o o o o o o o + o o + O ",
"O.%.:.8.J % o . . . . . . . + . . . . . . + o O M L.! J T v b n o.o.o.o.o.o.;.;.o.o.;.o.o.o.b 1 J U % O o o o o o o o O o o o o ",
"%.%.;.:.$.- O . . . . . . . . . . . . . o O o + ; f.< ! $.b n o.o.o.o.o.o.o.o.o.o.o.@.@.o.o.n v -.< % @ O o o o o o o o f & o o ",
"%.;.%.#.v ; % / . . . . . . . . . . . . o o o + - - , , 1 c o.o.@.5.o.o.o.O.o.@.o.o.@.@.+.o.o.c 1 , - & & o o o o o o o + O O f ",
"%.:.o.b h : % + . . . . . . . + . . . o o o O @ % % : , 1 v n o.@.@.@.@.5.t.@.;.@.@.@.@.@.o.o.W 1 , ; - ; O o o o o o o o o O w ",
"%.%.o.n h , - O . . . + . . . . . . . O o O + & & ; , , 1 v n o.@.@.@.@.5.5.@.;.O.@.@.@.@.;.o.n 1 1 : % $ O o o o o o o o o o o ",
"%.%.o.n c P - + . . . . . . . . . . . + & O + & & : , < 1 v n o.@.@.@.@.4.4.6.@.@.@.@.@.@.t.o.b v 1 , - % O o o o o o o o B + o ",
"o.o.;.%.n c ; % O . . . . . . O . . . y X.o @ & - : , 1 1 v b o.5.t.@.@.@.6.@.;.;.;.;.@.@.@.o.n v 1 , - % # + o o o o o & + o o ",
"o.n l.v.n h - % O . . . . . . + . . . o O o + q & : , c W 1 v b o.@.@.@.@.@.@.@.@.6.5.@.@.@.;.n v 1 : - & & ; + o o o o & + o o ",
"b c 8.y.&.=.- & O . . . . . . . O d.O . . . + & & : , T >.1 1 v n o.o.5.4.@.@.@.@.@.@.@.@.O.O.n v 1 , - & S q + o o o o o o o o ",
"h h b b c h - % % O . . . . . + + K.+ O . . O & & < J , , < 1 1 b o.o.u.n.@.4.@.@.u.@.@.@.o.o.b v 1 < ; & & + o o o o o o o o o ",
"h h h h h : - % M S o 2 . . O . . * . . . . o @ & ; < : , , < 1 v b o.x.p.@.@.@.@.@.@.@.@.o.n b 1 1 < , - @ O o o o o o o o o o ",
"h h 1 1 , : - % % @ o O . . . . . . . . . . o @ & - & & - , , , < v n ;.;.@.@.@.@.@.@.@.@.o.n v 1 < , R w.% O o o o & 7 + o o o ",
"h h , , : : - % @ @ @ o . . . . . . . . . . o + w M.& & & - - : < h n o.;.o.o.@.;.@.@.@.@.o.n b 1 1 1 R ! M + o o o w f o o o o ",
"h h , : : , - % & & + o . . . . . . . . . O o O ; ,.& & & & & % , c b.n n o.o.o.o.@.@.@.@.u.n $.c 1 1 1 , % + o o o + + o o o o ",
"< 1 , : : d ; % % % o o o . . . . . . . . $ o o @ & & & & & & & , 1 z.n b b b n o.o.@.@.o.o.b :.b 1 h , % $ O o o o o o o o o o ",
": , : :  .: : % % % O o o . . . . O . . . * & O L & & % @ + @ & - , c v v h b b n o.o.o.o.n b v 1 1 h : % @ O o o o o o o o o 7 ",
": : : : N d > % % & # O o . . . . + . . . . . $ P.L @ O O o + & & - , , < h v b n o.o.o.:.#.b v 1 < , : % + o o o o + o o o o o ",
": : : : Z.w.: - % % ; O o . & . . . . . . . . + j.; O o o o o O % & - , , 1 v b n o.o.o.o.n b v < , , : % @ o o o o o o o o o + ",
": : : , >.M : : - % & @ o o 7 o + & . O . . . o + O o o o o o O O & & - < < T v n c.&.:.n n #.2., , , ; L & + o o o o & O + o ..",
": : : d : : : - % % % @ O 7 S.+ + # . . . . . . X . o o o o o o o O @ & d , < 1 n V.o.5.o.n b v , , : % & @ O o o o o + O & o + ",
": : : : : : : ; - - K $ O O t O o . . . . . . . . O + o o o o 2 o o O @ % - , < W n b b b #.k.1 , , - & & @ o o o o o o o O o O ",
": : : : , : : ! w.d j.$ O O o o . . . . . . . + . . 7 o o o + # o o o O + & : < 1 1 h h v b =.1 , , ; & & + o o + & o o o + o y ",
": : : : d : - : - % - # o o o o . . . . . . . . . . . . o o o o o o o o O + & : < 1 1 c T 1 < , , ; > & & O o o o o o O + o o * ",
": : : : : - % % % @ O o o o o o . . . . . . . . + O . . o o o o o o o o o O $ - , , < 1 T 1 < , , - & ; - & O o o o o o o o o N.",
": : : : : - % % % O O o o o + + . . . . . . . . O O . O + o o o o o o o o o @ & : , , , , , , , , < & - & & O o o o o o o o O } ",
": : : : : ; - % M O O o o o o o . . . . . . . . . . . . o o o o o + ~ o O # o & & ; , , , , , , | a.% & % ; + o o + o o o 2 o o ",
": : : : : < - % - @ $ o o o + + . . . . O . . . . . . . + + o o o + o o + O o % & & % - ; ; ; ; : : - % + O O o o o o o o + o o "
};
