/* XPM */
static char *ae2394655b9b4508e7d9cc30d0a45eb4zAFewvXHawAXiGKk[] = {
/* columns rows colors chars-per-pixel */
"64 64 128 2 ",
"   c #000000",
".  c #040C04",
"X  c #0C0C0C",
"o  c #041406",
"O  c #041A05",
"+  c #061C09",
"@  c #0A1D0B",
"#  c #131313",
"$  c #191919",
"%  c #062208",
"&  c #08230A",
"*  c #062C09",
"=  c #053608",
"-  c #09330B",
";  c #063E0A",
":  c #083B0B",
">  c #202020",
",  c gray20",
"<  c #06450B",
"1  c #08440D",
"2  c #07490D",
"3  c #084C0E",
"4  c #05540B",
"5  c #09540F",
"6  c #075D0E",
"7  c #095B0F",
"8  c #0A4F10",
"9  c #06600E",
"0  c #08640E",
"q  c #066A0F",
"w  c #096C0F",
"e  c #05740D",
"r  c #076C10",
"t  c #096A10",
"y  c #087311",
"u  c #077C10",
"i  c #097F12",
"p  c gray28",
"a  c gray32",
"s  c #6A6A6A",
"d  c gray48",
"f  c #068611",
"g  c #088512",
"h  c #068C11",
"j  c #088912",
"k  c #039310",
"l  c #039311",
"z  c #069011",
"x  c #049310",
"c  c #049311",
"v  c #059311",
"b  c #069112",
"n  c #069712",
"m  c #099114",
"M  c #059A10",
"N  c #049A11",
"B  c #059A11",
"V  c #059B11",
"C  c #059B12",
"Z  c #059B13",
"A  c #069B13",
"S  c #079B13",
"D  c #049D11",
"F  c #049F10",
"G  c #049E11",
"H  c #049F11",
"J  c #059E12",
"K  c #059F12",
"L  c #079F14",
"P  c #00B20F",
"I  c #01B20F",
"U  c #02A310",
"Y  c #04A010",
"T  c #05A011",
"R  c #04A211",
"E  c #05A012",
"W  c #04A312",
"Q  c #02A410",
"!  c #03A611",
"~  c #04A411",
"^  c #04A610",
"/  c #04A611",
"(  c #04A711",
")  c #04A512",
"_  c #07A713",
"`  c #07A314",
"'  c #08A014",
"]  c #08A715",
"[  c #02A910",
"{  c #03A811",
"}  c #03A911",
"|  c #04A810",
" . c #04A811",
".. c #05A811",
"X. c #05A813",
"o. c #05A913",
"O. c #06A813",
"+. c #06A913",
"@. c #05AA13",
"#. c #06AA12",
"$. c #07AA13",
"%. c #02AC11",
"&. c #02AD11",
"*. c #01AF11",
"=. c #02AE10",
"-. c #02AE11",
";. c #03AE11",
":. c #02AF11",
">. c #03AD12",
",. c #03AE12",
"<. c #04AE11",
"1. c #04AF11",
"2. c #06A814",
"3. c #01B110",
"4. c #02B011",
"5. c #00B210",
"6. c #01B210",
"7. c #01B310",
"8. c #00B211",
"9. c #01B211",
"0. c #01B311",
"q. c #02B210",
"w. c #02B211",
"e. c #02B311",
"r. c #03B311",
"t. c #04B412",
"y. c gray67",
"u. c white",
/* pixels */
"                                                                                                                                ",
"                                                                                                                                ",
"                                                                                                                                ",
"                                                                                                                                ",
"                                                                                                                                ",
"                                                                                                                                ",
"                                                    * B B B B B B B B B B 0                                                     ",
"                                                    = 6.6.I I I I I I I I e                                                     ",
"                                                . ] o.6.6.6.6.6.6.6.6.6.6.-./ 1                                                 ",
"                                              . + 6.6.6.6.6.6.6.6.6.6.6.6.6.6.5 .                                               ",
"                                              f Q 6.6.6.6.6.6.6.6.6.6.6.6.6.6.} U %                                             ",
"                                              l 6.o.o.o.-.6.6.6.6.6.6.6.o.o.o.-.6.%                                             ",
"                                              l 2.      9 6.6.6.6.6.6.G       q 6.%                                             ",
"                                          o + g m       5 B o.6.6.-.B j       7 B - O                                           ",
"                                          g 1.&             r 6.6.W .             x o.O                                         ",
"                                          f 6.%   , , , $   t 6.6.G . . , , , #   x 1.O                                         ",
"                                          f 6.% # u.u.u.d   t 6.6.G . > u.u.u.s   x 1.O                                         ",
"                                          f 6.% # u.u.u.d   t 6.6.G . > u.u.u.s   x 1.O                                         ",
"                                          f 6.% # u.u.u.d   t 6.6.G . > u.u.u.s   x 1.O                                         ",
"                                          f 6.% X y.y.y.a   t 6.6.G . # y.y.y.p   x 1.O                                         ",
"                                          f 6.%             t 6.6.G .             x 1.O                                         ",
"                                          5 w 8 1       * 2 g 6.6./ 3 1       * 2 t w o                                         ",
"                                              l o.      9 6.6.6.6.6.6.G       q 6.%                                             ",
"                                              l -.4 4 4 f 6.6.6.6.6.6./ 4 4 4 h 6.%                                             ",
"                                              l 6.I 6.6.6.6.6.6.6.6.6.6.6.6.6.6.6.%                                             ",
"                                              < 6 6.6.6.6.6.u 4 4 9 -.6.6.6.6.u 4 o                                             ",
"                                                . t.6.6.6.6.2     o } 6.6.6.6.3                                                 ",
"                                                  2 t 6.6.6.j r q y -.6.6.h 2 %                                                 ",
"                                                    = 6.6.6.6.6.6.6.6.6.6.e                                                     ",
"                                                    o ; u 6.6.6.6.6.6./ ; *                                                     ",
"                                                        6 -.6.6.6.6.-.B                                                         ",
"                                                        + = i 6.6./ : *                                                         ",
"                                                            t 6.6.W .                                                           ",
"                                                        3 h W 6.6.-.x i                                                         ",
"                                                  o o o q 6.6.6.6.6.6.W o o o .                                                 ",
"                                                . B B B Q 6.6.6.6.6.6.-.B B B 1                                                 ",
"                                              . @ 6.6.6.6.6.6.6.6.6.6.6.6.6.6.5 o                                               ",
"                                              g G 6.6.6.6.6.6.6.6.6.6.6.6.6.6./ G +                                             ",
"                                              x 6.6.6.6.6.6.6.6.6.6.6.6.6.6.6.6.6.%                                             ",
"                                              l 6.6.6.6.6.6.6.6.6.6.6.6.6.I 6.I 6.%                                             ",
"                                              l 6.h n 6.6.6.6.6.6.6.6.6.6./ h W 6.%                                             ",
"                                              l o.. ; 6.6.6.6.6.6.6.6.6.6.e . r 6.%                                             ",
"                                              l o.  = 6.6.6.6.6.6.6.6.6.6.e   q 6.%                                             ",
"                                              l o.  = 6.6.6.6.6.6.6.6.6.6.e   q 6.%                                             ",
"                                              l o.  = 6.6.6.6.6.6.6.6.6.6.e   q 6.%                                             ",
"                                              l o.  = 6.6.6.6.6.6.6.6.6.6.e   q 6.%                                             ",
"                                              l o.  = 6.6.6.6.6.6.6.6.6.6.e   q 6.%                                             ",
"                                              l o.  = 6.6.6.6.6.6.6.6.6.6.e   q 6.%                                             ",
"                                              l o.  = 6.6.6.6.6.6.6.6.6.6.e   q 6.%                                             ",
"                                              x o.  = 6.6.6.6.6.6.6.6.6.6.e   q 6.%                                             ",
"                                              1 3   = 6.6.6.6.6.6.6.6.6.6.e   = 5 o                                             ",
"                                                    = 6.6.6.6.6.6.6.6.6.6.e                                                     ",
"                                                    = 6.6.6.y < < 5 -.6.6.e                                                     ",
"                                                    = 6.6.6.2     o } 6.6.e                                                     ",
"                                                    = 6.6.6.2     o } 6.6.e                                                     ",
"                                                    = 6.6.6.2     o } 6.6.e                                                     ",
"                                                    = 6.6.6.2     o } 6.6.e                                                     ",
"                                                    = 6.6.6.2     o } 6.6.e                                                     ",
"                                                    = 6.6.6.2     o } 6.6.e                                                     ",
"                                                    = 6.6.6.2     o } 6.6.e                                                     ",
"                                                . ' ` 6.6.6.2     o } 6.6.o.L 1                                                 ",
"                                                . o.o.} } } 1     o G } } o.o.1                                                 ",
"                                                  o o o o o .       o o o o o .                                                 ",
"                                                                                                                                "
};
