/* XPM */
static char *aecbfb454e814e1f9f5905843bbf5adccUwuVxKZjSfpsSXw[] = {
/* columns rows colors chars-per-pixel */
"64 64 255 2 ",
"   c #010102",
".  c #03020B",
"X  c #09030E",
"o  c #030313",
"O  c #0B0413",
"+  c #03021B",
"@  c #0B041B",
"#  c #0B0A1C",
"$  c #080816",
"%  c #13041C",
"&  c #030323",
"*  c #0B0424",
"=  c #0B0B24",
"-  c #03022B",
";  c #0B052A",
":  c #0B0B2D",
">  c #070826",
",  c #130424",
"<  c #13042C",
"1  c #16082A",
"2  c #12112C",
"3  c #030334",
"4  c #0C0B33",
"5  c #03023C",
"6  c #0B033B",
"7  c #0C0B3D",
"8  c #0A0533",
"9  c #130434",
"0  c #170838",
"q  c #121333",
"w  c #13143C",
"e  c #14183A",
"r  c #0E1235",
"t  c #25053A",
"y  c #1C203B",
"u  c #030244",
"i  c #0C0344",
"p  c #0B0B43",
"a  c #06054A",
"s  c #0B044A",
"d  c #0B0B4C",
"f  c #06094A",
"g  c #1B0543",
"h  c #13044C",
"j  c #1A054B",
"k  c #160A46",
"l  c #0E1347",
"z  c #131444",
"x  c #16154A",
"c  c #0B0B54",
"v  c #140554",
"b  c #1C0554",
"n  c #140A54",
"m  c #1A095A",
"M  c #0D1357",
"N  c #131354",
"B  c #1B125B",
"V  c #1C1A5C",
"C  c #181756",
"Z  c #270748",
"A  c #270759",
"S  c #34055C",
"D  c #350757",
"F  c #251458",
"G  c #2B0D4C",
"H  c #1D2248",
"J  c #1A2357",
"K  c #242B5B",
"L  c #1B0A63",
"P  c #1A1867",
"I  c #161973",
"U  c #0E1566",
"Y  c #2C0B64",
"T  c #2B0D6C",
"R  c #260867",
"E  c #33056C",
"W  c #3C056B",
"Q  c #370866",
"!  c #221463",
"~  c #291869",
"^  c #331169",
"/  c #2D0A74",
"(  c #330C73",
")  c #3B057B",
"_  c #3C0C7D",
"`  c #380875",
"'  c #2E1373",
"]  c #2D1A73",
"[  c #271978",
"{  c #321476",
"}  c #34137B",
"|  c #321A7C",
" . c #391578",
".. c #1B2263",
"X. c #1E2C7A",
"o. c #232468",
"O. c #272879",
"+. c #33297A",
"@. c #2A347B",
"#. c #343B76",
"$. c #313569",
"%. c #43036B",
"&. c #440668",
"*. c #440473",
"=. c #44037B",
"-. c #4C047B",
";. c #450979",
":. c #490E7C",
">. c #394478",
",. c #3C0C83",
"<. c #3B0885",
"1. c #371987",
"2. c #3B1A99",
"3. c #31148A",
"4. c #1C2F90",
"5. c #2A2988",
"6. c #362888",
"7. c #2A2999",
"8. c #3C2594",
"9. c #2A3699",
"0. c #373B95",
"q. c #32378A",
"w. c #3A1FA4",
"e. c #1D37AE",
"r. c #3825AC",
"t. c #2635AA",
"y. c #3439A7",
"u. c #3D2BBB",
"i. c #3635B5",
"p. c #2933B2",
"a. c #4A0484",
"s. c #420C83",
"d. c #45038A",
"f. c #4B048D",
"g. c #4A0B8D",
"h. c #460886",
"j. c #53048B",
"k. c #570689",
"l. c #451388",
"z. c #4B0894",
"x. c #530494",
"c. c #55049A",
"v. c #5C049C",
"b. c #570997",
"n. c #471796",
"m. c #55189B",
"M. c #57158B",
"N. c #63049C",
"B. c #67079A",
"V. c #680894",
"C. c #482798",
"Z. c #542499",
"A. c #44379C",
"S. c #47308D",
"D. c #5D04A3",
"F. c #590BA5",
"G. c #4819A6",
"H. c #5517A6",
"J. c #5319B4",
"K. c #6303A4",
"L. c #6C03A4",
"P. c #6404AA",
"I. c #6B03A9",
"U. c #660BA6",
"Y. c #7303A9",
"T. c #7B03AA",
"R. c #7805A5",
"E. c #6616A6",
"W. c #7614AB",
"Q. c #6F16B2",
"!. c #4A25A8",
"~. c #5527A6",
"^. c #4928B6",
"/. c #5825B6",
"(. c #5139AF",
"). c #6828B8",
"_. c #7828B4",
"`. c #6736B8",
"'. c #7533B1",
"]. c #394594",
"[. c #334994",
"{. c #3447B3",
"}. c #4A5396",
"|. c #494E96",
" X c #4948A4",
".X c #5556AA",
"XX c #4947B8",
"oX c #5748B5",
"OX c #5856B6",
"+X c #4E52AF",
"@X c #7344B5",
"#X c #6650B4",
"$X c #5968AC",
"%X c #5A6AB7",
"&X c #5971B5",
"*X c #6568B9",
"=X c #6778BA",
"-X c #7375BE",
";X c #3236C3",
":X c #443CC3",
">X c #7036C2",
",X c #2644C8",
"<X c #3745C6",
"1X c #3855CA",
"2X c #484CC5",
"3X c #4756CA",
"4X c #5759C7",
"5X c #554DCB",
"6X c #685AC5",
"7X c #714BC7",
"8X c #4769CA",
"9X c #5966C6",
"0X c #5671CC",
"qX c #6668C9",
"wX c #6775C5",
"eX c #726ECD",
"rX c #8202AB",
"tX c #8603A9",
"yX c #801BB4",
"uX c #922DBF",
"iX c #8E4DCC",
"pX c #8775D7",
"aX c #8D7BE0",
"sX c #9033C1",
"dX c #6987B7",
"fX c #7386BB",
"gX c #6997BE",
"hX c #6A8BB1",
"jX c #578ACC",
"kX c #6A87C6",
"lX c #6B99C8",
"zX c #7994C7",
"xX c #7490CF",
"cX c #69A9CC",
"vX c #6BAAD2",
"bX c #75A8D5",
"nX c #77B7DA",
"mX c #73A7CD",
"MX c #7BBEE1",
"NX c #76ADE2",
"BX c #7DC2E2",
"VX c #898BD2",
"CX c #81AFDB",
"ZX c #9688E1",
"AX c #8CAFE5",
"SX c #89CDEE",
"DX c #85C8E9",
"FX c #99D3EE",
"GX c #9ACEE9",
"HX c #A9DAF2",
"JX c #B0E0F5",
"KX c #FEFFFE",
"LX c #F5FBFB",
"PX c #E7F4F7",
"IX c #CFEAF2",
/* pixels */
"# # o   . N q # 5 3 > d 3 3 7 = 7 q O g + 3 3 - 7 o + z 5 p F z w z Y ; ` ( - 4 $ $ $   & u & . o 5 5 3 - o                   & ",
"4 # : : > N N x V d * k V ( R B Y ~ C ( F Y A Y n p E s.z l 7 4 j j ^ A k k Z = S $ # # . $ . - - o & 5 5 &           .       & ",
"4 4 w @ z ~ F k ' ! p ~ ~ F ,. .Y 0. Xz.} v.D.D.h.( ` / C k _ T m R 0 A j b F G 4 e z x $ q = $ & + + 3 5 & o                   ",
"Z %.` Q ` g.h.) d.,.~ o.] ] ] } ] n.8.s.C.1.D.D.b.h._ ;.-.j.f.;.` ( F Z j Z w d > F ! wXV X X $ # $ . & & 3 5 - . .         . . ",
"d.b.k.D *.l.g.oX~.c.z.OXq._ ,.` _  . .h.OX(.P.K.H.P.x.z.k.-.x.K.K.E.`./.z. .x 7 z N w P x + X 2 X $ $ o . & u u & & o     o , . ",
"` s.h.f.c.Y.T.Q.Q.).P./.z.d.n.6.] { ] V 6.g.K.U.).,.b.b.R.v.;.h.l.n.#X*XOX^.1.( ! 7 q O.$XZ Z w , 2 >.q $.J 5 5 & 5 + o . * D % ",
"v.E ` ( <.d.K.rXW.7XY.rXT.N.`.(.1.T  .:.a.k.g.8.+XL d.f.) ` b.b.b.6.b.(.$X%X<Xl.Y s N G j Z ^ G # 1 H # o.$XN u 5 a 5 o   . X   ",
"P.D.D.Q F ! h.j.,.g.j.I.T.T.rXY.L.v.B.L.v.b.f.K.1.` L m h Z W j.=.z.v.z.OX=X9X1.c.) Y A ! F : 0 , q X   # |.@.u u u u &         ",
"W a.A ~ g ' V 4 L Y d.d.a.x.c.K.Y.Y.I.f.f.c.x.) T ) f.) i 5 g 9 + Q =.=.Z.*XhX$X{.^.f.} K.^ x w 0 @ O 1 = . 3 o 3 u u 5 . &     ",
"0 Z b ^ F E ( Z ) d.E R j + k A A A , . . X X X @ A & 0 g - 5 3 + 1 &.Z h.^.9XhXwXu.F.Y ;.K.E , 0 k $ 0 , , @ : p a i S 9       ",
"w 2 ; @ k + ; < 0 * .                   . #.$.  & - - . . & & - - o Z t , s.<X2X3X5Xu.g.A [ 6XH.l.Z +.}.|.Z 0 = >.J u A Q 8 .   ",
"# o & > x + + .                           e z   . o o o . . . o 5 3 * g 0 Q s.b.G./.2X^.=.( A.;X:Xz.s.S.8.F : - > & u S *.b +   ",
"  . - 3 J & +                     w           w .   o .       O < < ; + 3 9 Z m Z W H./.J.k.E /.4X2XH.` S S G Z & - 5 Z j.W 6 o ",
"  ; L | 7.' n o                 = &X=       $ $Xr : .                 X , 9 8 A 3 * Z -.J.c.W F.2XwX2XF.;.~ k & - + 3 g c.=.A & ",
"4 ~ O.7.y.5.[ B #       . $ $ X $ $   O $.F 1 $ $ + > # .       $ y X .   O 8 o 6 + @ t W _ b.!.<X9X9X!.S 0 < 8 8 * 7 H v.j.W - ",
"] 5.{.1X8X,Xt.[ x X X # ..{.0...q $ X O H G Q Z O . = + o .     q }.# X @ X <   < + O , &.x.E.*X9X9X%X!.g.Y Z < g ; P .X,.a.W a ",
"5.t.1X8XbX3X{.5.@.X.[ ....9.C.1.F ~ O.^ ~ F G :.D Z e z > .   + - > . O #.K X O   @ * t 1 _ H.&X=XdX%X^.k.G ^ j g < i / n *.W  X",
"! [ 9.,X3X,X5.' x l w w C O.] | 5.2.i.n.H.~.Q S.O.S.q.F q r   + & + + > o.H   X   O @ @ + A G.9XdX}. X:Xz.Z Q t g 9 b OX6.j.a.~.",
"& ! { 1.7.[ { n ! ~ ~ ~ V C z  .l.T./.qXm.(..XdXwX{.XXZ.*.T Z t % . X O 3 u - 3 o       . 3 ) ^.OX=X=X9X(.S Q *.0 ; E 1.T x.D.f.",
"0 b ~ { 5.~ ! ' <.h.,.<.n.1.5.y.n.U.W.wXdX*X(.qXdX0X{.(..X`.E.&.Z < % Z O & & & - o .   + - j E z.^.XX.X#XS Z Q D A ) / Y f.D.K.",
"&.%.E _ { ' ,._ | 8.{.y.A.(.OX%X%X*X6XwX=X=XOXwXbXbX0X1X4XdX=X@XW.k.S D 1     3 3 u 3 o < @ 9 h m a.G.<X^.W D -.A Z E W A *.x.L.",
"1.%.a.] } a.Z.Z.A.wX&X&XfXVXhXhXhXhX=X=XqX=XdXkXbXSXvXjX9XkXlXdX@XtXk.Z Z O   o 5 3 u 3 3 o 5 u u Q z.2X^.h.j.a.Z t Y E E %.d.K.",
"2.;X4XqXm.I.Q.Q._.@X=XdXVXVXfX*XW.Z.E._.OX=X=X=XdXqXxXNXnXgXxXbXhXdX@XW.V.D . 0 , o o u u i v A 0 %.^.;XF.S *.j.Z A R Y *.f.K.Y.",
",X3XqX'._._._.#X'.'.`.2X_.oX9X2X^.y.9.y.[.[.OX4XwX=XqXqXmXcXcXnXgXbXdX'.rXk.t - Z 3 + & u u A 3 @ G F.x.W *.-.j.*.a.) S %.N.I.rX",
"r.2XOX*XfXZXZXVXVXdX9X2Xr.w.3.4.4.~ ' [ } n.C.C.!.=XqXqXwXgXlXlXgXmXlXwX_.W.&.4 [ & 5 + - s A 9 < D N.-.%.-.j.g.=.( h E f.I.Y.J.",
"x.!.OXfXgXfXfXdXVXfX9XC.Y m A j h u f M P B R Z.(.qXwXwXqX=XmXgXmXAXZXxXqX7XR.W t.l 3 u & h D , < T k.*.%.*.` _ ` R W %.a.c.z.qX",
"#X=XzXbXzX=X#X/.XX X+.! A A A ` ( T ` ] 1.|..X&XhXdXxXVXZXVXCXbXnXMXDXCXpXqXuX_.} e.l u & s 9 0 #.*Xg.a.%.Q ;.=.S g j.B.d.f.c.F.",
"cXqXqX$XOXoXU.r.:.s.Y S A ,.c.c.v.g.~ +.6XwXqXhXgXcXvXnXnXDXDXDXnXDXSXSXAXZX'.6XY e.l u c +X4 5 P l.-.S *.} g.W Z E I.R.d.c.Y.Y.",
"xX6X~.| o.o.;.*.W Q s 7 Z 0 , < x ~ ,.~.=X=XkXmXcXnXDXFXJXJXHXFXSXSXSXSXnXgX*XeX1.,XN u f A.d 3 A W A F W _  X^ *.v.Y.rXL.Y.T.Q.",
"`.E.s.{ ( *.%.%.Q n + .   o - @ Z f.~.*X=XlXMXcXMXFXPXLXKXKXKXPXHXSXSXSXCXzXwXVX!.,XU 3 5 ) ; & Z h C Q _ S +.;.I.rXT.T.tXT./.OX",
"f.g.h.*.f.j.=.S k x =   + 3 & A f.K.oXqXdXvXDXBXSXPXKXKXKXKXKXKXPXFXSXSXAXZXdXpX5X4XU 5 b ) 8 u m n ^ ^ Z 1 S j.T.tXtXtXR.1.,.| ",
"@.1.d.f.a.-.' q # q > - u u v f.P.).qXwXcXnXSXSXSXLXKXKXKXKXKXKXKXFXSXBXAXfX9X4XpX+Xv L ,.R a f |. X=.t k x.T.T.T.R.R.N.{  XoX( ",
"o.} f.a.6.<.V q q & 5 u u 5 v b.k.7X=XdXgXDXSXSXSXPXKXKXKXKXKXKXPXFXDXnXgXhXwXqX+X| ,.1.1.u u B o.] W 9 g.I.L.m.C.d.b.g.] } z.K.",
"' c.P.H.+X~ q : w 8 < i & i Q *.g.7X=X=XgXDXSXMXMXSXIXPXLXKXLXIXFXDXvXkX-XeXeX+.L ,.8.7.R u ! ~ | .XT ~ OXH.R.M.Q Q < G f.K.T.rX",
"d.P.D.4X(.F e w 4 7 6 i u h S Q F.>X=XwXcXDXBXkXwXvXBXDXGXGXGXAXCXAXZXpX6XoX1.` 6.q.C.<.s N ~ ! _ q.j ^ ).T.&.# X g Y h.P.T.tXT.",
"x.c.g.|.1.F 2 2 7 i 3 & 5 d f 6 ) U.4XwXnXSXVXcX@XwXkXzXzXzXzXzXeX7X`.!.m.l.9.8.5.@.n b C 1..Xk 0 9 D V.rXk.% 1 G s.g.c.D.I.R.N.",
"c.x.,.o.{ Y X 2 7 3 * 9 8 ].q.j %.F.G.*XnX0XzXnX#X7X3X3X9XqXqXOX_.L.d.n.U.R.u.q.+.W Q ' ! OX|.h.K.N.Y.tXT.z.q.A.z.Y.T.c.d.a.a.=.",
"P.I.g.~ { J # q z 3 + i 6 i v S S ( c.XXmX-XmXnXxXQ.wX8X7X5X<Xp.U.T.G.G.>XiX>XU.B.j.f.0 @ 0 W T.rXtXrXB.v.XX3X).L.N.b.*.%.S.S.D ",
"T.T.F.~ { o.= $ q 9 o 3 3 & b 0 & 7 2.;X0X`.dXMXvX8XjXxXiXiXZ.C.n.-.B.-.-.E.E.R.L.N.L.W -.b.Y.rXL.b.oXH.P.G.w.} ~ ~ F F n P ..+ ",
"tXT.c.~ ' C + = x : o z O.> h 5 - - q r.p.oXwXnXDXcXvXnXeXiXpXsXZ.Q =.b.k.B.N.K.K.L.I.(.U.U.L.k.-.r.XXH.l.] P c P ].f 5 3 - + . ",
"tXI.b.{ N u - X = X o 7 J + 3 & - - 5 8 w / (.A.nXnXnXvXvXqX<X`.5X).~.C.!.H.m.m.R.T.H.y.2.<.1.;.f.x.x.J.;X+X].a c ..- o @ X O }.",
"tXI.g._ V a f & 2 2 + @.w $ > @.N 3 u a I ; } / C.kXcXlXnXvX8X1XjXxXeXeX3X<X{.9.n.m.n.r.p.p.2.,.] s.H.wX3Xe.I v g 0 8 , O   . #.",
"U.T.c.d.v V d 5 o $ # H 2 >.#.K w 6 - u - 3 > 9 E T ~.:X8XjX0X4X3X8XNXjXjXlX0X9X3XOXqX6X~.!.' ..O.$X3.n.!.r.;.*.Z % ,   X       ",
"z.rXI.L.k.m V c 5 + : $   > >   . + 3 + + - 5 - 3 T ) z.^.;X;XJ.`.9XqX4X1X{.{.y.{.i.oX+XeX9XOX X0.q.6 j j 9 & .     O           ",
"x.N.T.N.k.k.! C f 3 ; z # . - @ % O o & - + - 5 u d 3 i L 8.(.2.,.Z. X~.l.} R R P I L P L +.o.d 5 + o * o . o     O             ",
"{ T B.T.D.R.K.( C N u : # . + 3 + .     4 8 - 3 3 + 5 & 3 P ..4 8 9 a n q.O.8 6 h 6 f wXM * * - - * Z D X       2 $.$         . ",
"s / D.Y.Y.j.R.N.~ P d d = = $ 3 5 o   . >.H     & & - 5 - - . . + & 3 8 #.+.Z + , * @ n 0 D @ . . X t %         2 $.$   . + o o ",
"u u ) f.x.<.V.R.m P V a N C X o 3 7 o . $ $ .     . - 3 3 - & & & & +   O X %     .   .   .       . t O   . . .   . + & 5 & - 3 ",
"C h <.) E d.) k.-.B B B d N # = # s m h q $ .       . . . .                                           . o < O + - 5 u u a u 5 5 ",
"n Y E v R <.' b.rXV.h.E R m N w A N.B.h.B 8 > .   o > 4 > .                                       . + ; Z Z Q j h s v a s n s ].",
"- b s s L ' z.F.Y.tXT.rXrXN.~ T ( D.Y.rXv B n i q w = }.K .                                   o - u A W W m R R v v L d u c f ].",
"- M h s 7 h b.P.).Q.K.M.l.a.l.` Y *.f.Y.j.n.s.R M N G V p x > & o .             =             & b T W ,.i.i.<.b R P N - d p ..5 ",
"w &XY b u h W l.4X).g.q..X1.G.1.! &.a.I.rXT.rXj.R m '  .R d C p 4 $ o         C  X4         . 3 m *X .,.{.i.h.=.*.oX0.A b i N - ",
"- N : A u v A :. XB.B.T [ G.,XG.{ C.n.K.Y.rXY.N.b.z.O.} s.a. .! ! V p o       P +Xz         o a N O.~ ~ { *.%.%.%.;.;.*.Q g & l ",
"z.0.a > 7 C b Q Q A k.R.] l.G.1.~ (.f.b.Y.T.l.o.B.T.yXyXW.rXtXL.c.m s & # 2     #       . o 7 ! ~ o.o.o.o.~ ! b g 9 < < P 4 o . ",
"P |.> + o . > n S %.E Q k.:.^ ~ o.~ W  .c.L.N.] P._.aXZX7XtXtXT.K.m M I B @   .         & d o.7.| o.x o.o.V 6 j Z 0 , o 8 o X + ",
",.l C b & -   - h b g ; i a v Q S n n ! _ v.Y.v.I.T.7X7XW.tXrXI.n.X.M M - > ! 9 o + 3 3 u R 7.8X{.P T ( R 4 7 g 9 < , < * o @ 9 ",
"7.,X;Xb s 3 > 3 5 b i 3 j N N V B h F M ].' v.L.T.v.N.R.rXtXrXQ.r.4.U U u 5 u u u s s 5 u 5 m p.[ 5 h Y 1.9.$XC < 9 0 @ 9 > $.8 ",
"B 4.e.e.t.I  XC & + & 3 i p v d l + 4 k >.2 0 -.v.B.f.f.P.I.T.T.E.7.I c i u u 5 + 8 8 2 * + u m s 3 8 x {.0X[.; + X 9 i * 6 >.n ",
"w t 4 1.3.t.e.U & - - + & 8 h h i + o =   . + < W v R ) G.u.^.J.z.} T s h h j 9 ;.a., 2 . o & 3 & + * $ J 9.e . + $ : ; O X + ; ",
"w D 0 k c 3 * P 7 p 0 g o - u #.F o o o . + . + 6 3 6 j =.n.G.u.;X;X;X1.[ I 3.H.J.v.%.1 o o & 3 & . $ $ $     $ >.].@.o .       ",
"2 0 G # > : : M 8 P 9 Z & o $ #.x . - & 3 J V .     o + , 9 1 A E a.n.^.:X^.G.H.*.D *.v.D 9 @ , < .             $ = $   . .   . ",
"q F V q $ w = = + > o + + x q + o . + & 3 $.$.> o   o .   o   . * Z % ] =XXX*.&.Z O % Z D D Z t 1 .                         o + ",
"F , C C # X . X X = $ 4 > o.H + +     o o o 7 =Xl   . . o + .           # $                                               .     "
};
