/* XPM */
static char *_ef1de3a7bc34f6085bd7a1a2967d194B1TslRL1O7JL9m3C[] = {
/* columns rows colors chars-per-pixel */
"64 64 178 2 ",
"   c #010E16",
".  c #090C15",
"X  c #030E19",
"o  c #0A0C18",
"O  c #180D17",
"+  c #021015",
"@  c #051119",
"#  c #0A151E",
"$  c #0E191E",
"%  c #101C1E",
"&  c #270B16",
"*  c #35101C",
"=  c #340A19",
"-  c #130F21",
";  c #0E1A22",
":  c #121C25",
">  c #151F28",
",  c #1B1E27",
"<  c #2F1132",
"1  c #351B3A",
"2  c #152129",
"3  c #19242D",
"4  c #1C2A2D",
"5  c #152027",
"6  c #1E2B33",
"7  c #222C34",
"8  c #262F38",
"9  c #263339",
"0  c #2B363F",
"q  c #2A393C",
"w  c #253236",
"e  c #31373D",
"r  c #420B1F",
"t  c #590B1E",
"y  c #470E22",
"u  c #5B0A23",
"i  c #461536",
"p  c #6C0A26",
"a  c #730A29",
"s  c #7C092C",
"d  c #7D122E",
"f  c #2F3942",
"g  c #313B44",
"h  c #501D48",
"j  c #682555",
"k  c #732059",
"l  c #36414A",
"z  c #3B454A",
"x  c #3D4B4C",
"c  c #344143",
"v  c #3E5151",
"b  c #40444E",
"n  c #49555A",
"m  c #4F5962",
"M  c #525C64",
"N  c #5E6B69",
"B  c #616E72",
"V  c #687775",
"C  c #6B7A79",
"Z  c #667175",
"A  c #840A28",
"S  c #950830",
"D  c #AC0933",
"F  c #BB0936",
"G  c #BE0638",
"H  c #B5143F",
"J  c #A31A3D",
"K  c #CC052F",
"L  c #CF0236",
"P  c #C5083D",
"I  c #D80938",
"U  c #FA0F3B",
"Y  c #F5113D",
"T  c #E6133D",
"R  c #B71943",
"E  c #BC1548",
"W  c #BF1F52",
"Q  c #B62558",
"!  c #BE305D",
"~  c #C41B4A",
"^  c #D01641",
"/  c #C51C55",
"(  c #F31343",
")  c #F61758",
"_  c #C42057",
"`  c #D2295E",
"'  c #FA1663",
"]  c #CB3B6D",
"[  c #E93663",
"{  c #A84462",
"}  c #C94869",
"|  c #D14F6C",
" . c #DD506E",
".. c #DE4A71",
"X. c #C84473",
"o. c #E9516F",
"O. c #E65270",
"+. c #E95477",
"@. c #DE617D",
"#. c #73817E",
"$. c #737F81",
"%. c #F8378C",
"&. c #BA498F",
"*. c #DA4C9F",
"=. c #CE599E",
"-. c #ED5586",
";. c #E45184",
":. c #D16E9A",
">. c #D86483",
",. c #E07197",
"<. c #E56E9B",
"1. c #DF55A5",
"2. c #F255AF",
"3. c #FC4CB3",
"4. c #FB53B3",
"5. c #F45DB1",
"6. c #C071A0",
"7. c #D07CA1",
"8. c #E668A7",
"9. c #E07FAB",
"0. c #EB7ABC",
"q. c #E57FBB",
"w. c #F17BBD",
"e. c #F566BC",
"r. c #FB74C2",
"t. c #FB7BC8",
"y. c #758582",
"u. c #7A8582",
"i. c #889C9A",
"p. c #8CA09E",
"a. c #95A8A5",
"s. c #9EB5B1",
"d. c #A5BBB3",
"f. c #AABAB4",
"g. c #A8BAB8",
"h. c #B4BFBC",
"j. c #D1839C",
"k. c #DA91BC",
"l. c #D089B5",
"z. c #E689BC",
"x. c #B2C1BC",
"c. c #C1C6BF",
"v. c #B6BEC2",
"b. c #D895C5",
"n. c #F989CA",
"m. c #EE9CCB",
"M. c #EC97C2",
"N. c #F19DCE",
"B. c #ED8BC4",
"V. c #D6A7C9",
"C. c #DCACD4",
"Z. c #DAB9DC",
"A. c #DBB4DE",
"S. c #E9A2CB",
"D. c #DAB8E0",
"F. c #BDC5C5",
"G. c #BCC6CB",
"H. c #C3C5C4",
"J. c #C7C8CD",
"K. c #CECED7",
"L. c #D6D5DE",
"P. c #DAD3DB",
"I. c #D2D8DD",
"U. c #D9C8DE",
"Y. c #D6C4E4",
"T. c #DCC6EC",
"R. c #D8CAEA",
"E. c #DCD6EE",
"W. c #D7D3EC",
"Q. c #D7C7F3",
"!. c #DBC6F2",
"~. c #D7C8F1",
"^. c #D9C9F1",
"/. c #E5DAF0",
"(. c #E9E6F2",
"). c #F3EDF0",
"_. c #EEF0F6",
"`. c #F3F6F2",
/* pixels */
"                                                                                                                                ",
"                                                                                                                                ",
"                                                                                                                                ",
"                                                                                                                                ",
"                                                                                                                        > $     ",
"                                                                                                                        7 >     ",
"                                                                                                                                ",
"                                                                                                                                ",
"                                                                                    : $                                         ",
"                                                                                    7 3                                         ",
"                                                                                    X X                                         ",
"                                                                                                                                ",
"                                                                                                                                ",
"                                                                            X                                                   ",
"                                                                          # l                                                   ",
"                                                                            #                                                   ",
"                                                                                                                                ",
"                                                                                                                                ",
"                                                      +         X   +                                                           ",
"                                                    . . X         . X                                                           ",
"          @ 0 @                         X X           X X X X X + X +                                       @ >                 ",
"          @ 7                         X 3 :       X X = a s s p & . .                                       : 0                 ",
"                                        > :   X o o p H / ~ ~ / Q d & X     X                                                   ",
"                                            . X . p G 7.A.Z.Z.D.Z.` A . X                                                       ",
"                                      X     + X y F _ A.!.~./.E.!.:.R O + X X > :                                               ",
"                                            X O S ~ V.!.^.~.W._.R.Y.X.s . X   3 3                                               ",
"                                        X X X r E k.!.~.~.Q.R.).`.W.b.! * o                                                     ",
"                                      X . X o A ] T.!.~.~.Q.Q.E.`.(.T.:.s X                                                     ",
"                                      X + . u P l.Q.~.~.~.~.~.^.(.(.~.V.R .                                                     ",
"                              + X   + + + u F ] C.Y.Y.Y.Q.~.R.Y.U./.Y.C.! i 1 -     + X X X                                     ",
"                            X X X X X o u D K ^ ..>.@.j.Y.T.Y.V.k.z.S.M.8.1.*.h # X   X X X X                                   ",
"                            + X . O y a P L T Y U U U [ ,.<.9.z.5.4.r.n.n.r.e.2.&.j j o + + X +                                 ",
"                          . & t D F L L I I ( ( ( ( ) ) ' ' %.4.3.3.4.r.n.n.n.t.4.3.2.k j < X                                   ",
"                          O J } } } |  .O.O.o.O.o.+.-.-.-.;.8.0.w.w.w.w.N.S.S.m.m.B.0.q.0.=.1                                   ",
"                        X O { H.H.H.c.H.H.H.H.J.P.P.P.P.J.F.v.G.K.L.L.L.L.I.J.F.F.G.G.G.J.6.1 .                                 ",
"                        X @ e b v s.d.f.f.d.d.g.h.h.x.x.g.g.d.f.g.x.x.x.h.h.f.f.f.f.g.g.i., o                                   ",
"                          . X   X w c N V V y.u.u.y.y.y.y.y.y.y.y.y.u.y.y.y.C V V V V B g X o X                                 ",
"                                      ; : 5 M #.#.#.#.#.#.#.#.#.#.#.#.y.y.C w : : 9 0 ;     X                                   ",
"                                      X   X + z n y.#.#.#.#.#.#.#.#.$.x z 3       # $                                           ",
"                                      X X X     @ : z Z $.#.#.#.#.B 4 +                                                         ",
"                                              X X X $ 4 n #.#.#.N 7 X                                                           ",
"          X X X                                   @ l   + a.y.i.e                                                               ",
"          @ f @                                     @   9 i.a.p.M                                                               ",
"          X 4 X                                         # 4 n q %                                                               ",
"                                                                                                                                ",
"                                                                                                                                ",
"                                                                                                                                ",
"                                                                                      ;                                         ",
"                                                                                      g @                                       ",
"                                                                                      @                                         ",
"                                                                                                                                ",
"                                                                                                                                ",
"                                                                                                                                ",
"                                                                                                                                ",
"                                                                                                                                ",
"                                                                                                                                ",
"                                                                                                                                ",
"                                                                                                                                ",
"                                                                                                                                ",
"                              @ #                                                                                               ",
"                              # 9                                                                                               ",
"                                @                                             X                                                 ",
"                                                                          @ 3 7 : ; 3 3 3 3 # # 3 #     2 3 3 #     ; 6 3 @ ; 2 ",
"                                                                          l M m z 9 M M M M 3 8 M g X X n M m m : 3 M M m : g n "
};
