/* XPM */
static char *b49f162e73b14ebaaae48d786f5559d5gXiC3BRUkvuVf83N[] = {
/* columns rows colors chars-per-pixel */
"64 64 234 2 ",
"   c #28282F",
".  c #2D272D",
"X  c #3D2126",
"o  c #34242A",
"O  c #33292D",
"+  c #3B2A2C",
"@  c #3B2328",
"#  c #38312E",
"$  c #4E1A1E",
"%  c #59161A",
"&  c #751311",
"*  c #76281C",
"=  c #441E22",
"-  c #4A1C20",
";  c #432C2B",
":  c #4A2B2A",
">  c #4D2627",
",  c #5A2A26",
"<  c #552928",
"1  c #5B2421",
"2  c #45352B",
"3  c #563128",
"4  c #622C26",
"5  c #6A2A24",
"6  c #6B2621",
"7  c #772C22",
"8  c #633327",
"9  c #6A3426",
"0  c #613B27",
"q  c #7C3824",
"w  c #773323",
"e  c #784B25",
"r  c #6C4426",
"t  c #645431",
"y  c #87120C",
"u  c #891912",
"i  c #92120A",
"p  c #A5190C",
"a  c #89281C",
"s  c #982919",
"d  c #97331E",
"f  c #AC220C",
"g  c #A82B17",
"h  c #B92C17",
"j  c #A8351B",
"k  c #B8381A",
"l  c #BB300D",
"z  c #842C20",
"x  c #883922",
"c  c #933C20",
"v  c #9A3E20",
"b  c #A33723",
"n  c #C52D15",
"m  c #CA3915",
"M  c #D73714",
"N  c #D43011",
"B  c #E62C0F",
"V  c #E6320F",
"C  c #E63D0F",
"Z  c #E83410",
"A  c #E63A12",
"S  c #E12B10",
"D  c #92491F",
"F  c #A8421D",
"G  c #B6441C",
"H  c #BB481B",
"J  c #BA5617",
"K  c #B8671A",
"L  c #A9651C",
"P  c #894624",
"I  c #8C4D23",
"U  c #946B2B",
"Y  c #B06B24",
"T  c #CD5E0E",
"R  c #C6550D",
"E  c #CE4918",
"W  c #C84518",
"Q  c #DB4A16",
"!  c #D34A19",
"~  c #D94516",
"^  c #D85716",
"/  c #CF5A15",
"(  c #E6440F",
")  c #E64B0F",
"_  c #E6560F",
"`  c #E65C0F",
"'  c #E34B15",
"]  c #EB4B13",
"[  c #E74413",
"{  c #F04F14",
"}  c #EB5211",
"|  c #EC5C12",
" . c #E55A18",
".. c #F05514",
"X. c #F05B14",
"o. c #F05E1A",
"O. c #D7670E",
"+. c #D46817",
"@. c #DB7518",
"#. c #C1641B",
"$. c #E6630F",
"%. c #E66C0F",
"&. c #EC6B0E",
"*. c #E6740F",
"=. c #E67D0F",
"-. c #EB7D0D",
";. c #E56413",
":. c #E76C15",
">. c #ED6B13",
",. c #E9681A",
"<. c #F06314",
"1. c #F06C13",
"2. c #F16219",
"3. c #F16E1D",
"4. c #E67314",
"5. c #ED7413",
"6. c #E67C15",
"7. c #EA7C1C",
"8. c #E97717",
"9. c #F07313",
"0. c #F07C13",
"q. c #F17719",
"w. c #D25326",
"e. c #E55E27",
"r. c #D67828",
"t. c #D16A28",
"y. c #E86A21",
"u. c #EA7C21",
"i. c #F27B22",
"p. c #F2713E",
"a. c #B55A4D",
"s. c #D57B4A",
"d. c #D8715C",
"f. c #B3862F",
"g. c #D8831B",
"h. c #ED820E",
"j. c #F2840D",
"k. c #E68519",
"l. c #E78A1A",
"z. c #E98E1D",
"x. c #E88617",
"c. c #F08512",
"v. c #F08A15",
"b. c #F18D1C",
"n. c #F1851E",
"m. c #EA981C",
"M. c #F1931B",
"N. c #F19A1A",
"B. c #D78725",
"V. c #DD8738",
"C. c #DA9A39",
"Z. c #D69527",
"A. c #E78925",
"S. c #F28623",
"D. c #E99423",
"F. c #EA9C25",
"G. c #EA9C2B",
"H. c #E5962B",
"J. c #F29C22",
"K. c #F29729",
"L. c #E99B31",
"P. c #F39730",
"I. c #EBA32D",
"U. c #E8A826",
"Y. c #F2A325",
"T. c #F3AC2B",
"R. c #F2A529",
"E. c #ECB62B",
"W. c #F2B22D",
"Q. c #ECAB36",
"!. c #E7AA34",
"~. c #F1AB34",
"^. c #ECB33B",
"/. c #EBB836",
"(. c #F3B631",
"). c #F4BB34",
"_. c #F3BC3B",
"`. c #E2A427",
"'. c #ECC42F",
"]. c #ECC63A",
"[. c #F2C335",
"{. c #F1CB37",
"}. c #F0CD38",
"|. c #F2C03F",
" X c #EED439",
".X c #EDDB3B",
"XX c #EBD436",
"oX c #F0D13E",
"OX c #ECE33C",
"+X c #DA9052",
"@X c #ECB444",
"#X c #E8B655",
"$X c #ECAE4E",
"%X c #D69969",
"&X c #EE9D68",
"*X c #E3AB76",
"=X c #EEB46B",
"-X c #DBB157",
";X c #ECC54A",
":X c #F3C746",
">X c #EDD74C",
",X c #F2D34C",
"<X c #EDCB59",
"1X c #EED957",
"2X c #F2D855",
"3X c #F2C757",
"4X c #EDE44B",
"5X c #EDE445",
"6X c #EEE653",
"7X c #EFE85D",
"8X c #EFE55D",
"9X c #F0D173",
"0X c #EFE962",
"qX c #F0EA6A",
"wX c #F0E665",
"eX c #F1E777",
"rX c #EBB38D",
"tX c #E7BEA9",
"yX c #F2D190",
"uX c #F2E886",
"iX c #F3EF9C",
"pX c #F2E892",
"aX c #F4D8A9",
"sX c #F0D3AD",
"dX c #F6E9AB",
"fX c #F4F0A8",
"gX c #F5F3BB",
"hX c #F6E7B4",
"jX c #F0D9C5",
"kX c #F7E9C6",
"lX c #F6F3C7",
"zX c #F7F4D6",
"xX c #F6EFDB",
"cX c #F8F7E3",
/* pixels */
"                                                                                                    - =                 # #     ",
"                                                                                                  9 &                 e 2 2   q ",
"                                                                                                7 s @         4 ; # L 6.r O c 9 ",
"                                                                                              5 u X         5 , e K L e   x H c ",
"                                                  . $ o                                     6 u o       : g , r x.#.O   w ! c  .",
"                                                = $ X                                     4 u o       > g , 8 S.q.q   O F <.7.{.",
"                                              : g X                                     , u o       5 z w K A.K.x     F <.J.XXOX",
"                                            j ~ : 1 =                                 r ~ 3     O s 9 K 0.Y.3.c   + f.T.R..XOXOX",
"                                          8 ' 3 c :                                 e / : q     k ^ 4.9.K.K.P     #.J.T.}.6XOXpX",
"                                        . z [ w k                               3 ^ / + + x + W ' ;.0.B.H.G e # t.T.T.{.6X4XfXcX",
"                                        c n [ W +                             v +.Q w O s F F >.2.b.Z.2 r U U f.).).{.uX5XuXcXpX",
"                                      O W i y F           o                 F X.c.^ h h ^ ^ 0.1.R.Y.f.U `.v.g.).).wXiX7X6XgXpX_.",
"                                    + a ~ u o         . X =             O 3 q Q >.n ~ 1.c.c.q.J.Y.B.f.).Y.m.W.[.>XiXeX6X0XeX,X(.",
"                                    j a W ;         + o o             + v : + n ;.;.] 0.c.9.c.v.W.C./.T.'.'.:XwXeXqXqXwXqX2XT.c.",
"                                  3 F v c         o s +             ; k m w h M 4.0.0.c.0.M.c.M.(.Y.[..X'.3XkXiX5XqX1X,XwX~.0.X.",
"                                  v G : O         j % . = X       e #.' m ] [ { X.c.c.1.b.S.T.(.M.E.OXE.K.kXcX5X6X:XoX|.i.<.q.I ",
"                                + d +     + < * &     , 5   + 3 P A.z.z.h.x.<.0.0.c.<.9.q.o.(.Y.E.OX>XdXcXzX7XOX[.{.(.q.3.,.e   ",
"                                8 M +   q 5 M E ;   9 g   + H u.D.G.G.l.D.D.8.>.M.Y.I.2.S.S.R.XX6XeXdXcXfXwXOX}.[.I.@XK.S.U     ",
"                                ~ x q ! D j , w < ! k w I +.D.G.H.D.G.l.D.^.Q.D. .] ,./.J.M.:XdXfXgXzXuX4X}.{._.E.1.b.7.I O     ",
"                          + 9   M s ' X.<.W v M n } H O.6.x.l.F.;.L.l.F.F.I.D.G.,.) _ D.<XyXhXgXgXcX9X}.{.[.E.G.1.0.X.x     X % ",
"                          ; v + n ~ >...X.5.:.;._ *.A.6.=.=.=.x.=.:.6.G.!.G.=.l.:.;.4.` y.rXkXlXfX2X,X).).K.0.0.1.H ; .     % & ",
"                          w H E ~ 4...X.0.,.].OX7.*._ ` *.=.=.=.=.%.,.l.x.I.6.=.=.z.y.B C ) ` &X{.:X).R.S.X.b.i.G q   =   1 & o ",
"                          G { { 0.c.<.1.>.!. XOX'.` _ _ ` *.=.=.=.=.H.z.I.I.6.=.=.6.' B C _ %.*.F.).R.o.o.@Xi.W +   $ = , u $ X ",
"                          G i.3.X.c.c.-.;.L.E.}.8.*.` =.=.=.%.%.$.A.I.7.$.7.k.*.=.=.=.$.$.*.*.$.$.n.2.3.T.S.W     5 , 9 m 6 $   ",
"                        8 ' i.3.| h.c.H R T B.^.k.=.%.=.=.=.=.=.=.=.*.%.=.*.` _ A.F.=.=.=.=.=.=.%.C 2.J.b.H +   c : q m h 4     ",
"                        8  .Y.1.M.c.O.f.XXB.^.g.OXXXz.4.E.x.=.=.x.=.%.=.=.*.$.$.*.x.G.z.=.=.=.=.u. .b.0.E   < w [ N G m q       ",
"                        3 r.M.J.T.c.E r.`.L.^.!.OXm.=.=.U.m.=.h.z.&.%.=.=.=.=.=.%.*._ u.z.=.=.=.w.M } X.M d g p A z 3 8         ",
"                        q K.Y.T.Y.@.W V.hXyX@.@XM.h.=.6.U.m.U.N.j.&.` *.=.=.*.( ` =.*.6.Q.G.G. .S N l i N ] p f x O O           ",
"                        q 0.Y.T.^ r.+.yXcXrX+XaX=.*.k.h.h.l.OXN.j.&._ :.=.$.C $.=.*._ ;.k.` _ ( V M M p ( ] M { G               ",
"                    O   ; / J.(.G yXr.=XxXyXaXyXH.g./.@.c.h.m.E.>.6.;.4.=.*.` %.*.*.` $.=.$._ _ ( N M [ ' i m 8 +               ",
"                    v x   H J.).#XcX9XM.9XqX1X>X^.].].k.G.l.=.=.l.U.` ) %.*.%.$._ %.*.=.$._ _ ) B B ] { ' * @                   ",
"                    v ] G  .W.}.fXgXdX/.Q.9X<XpX}.1X).^.aX#XE.'.'.k.I.E.:.I.l.x.G.*.=.=.%._ ) ( B B ] { g :                     ",
"                    v ..X.c.)..XhXeXpX].^.J.F.<XiXcXcX<XsX#XE..X.XF.XXOXF.^.8.^.^.x.%.*.` _ _ ` _ V y & o                   + O ",
"                    v ..c.v.[..XhX].].9X@XO.-.;XgXcXcX>XB.I.z.m.F.4./.E.^.^.8.^.^.I.4.6.$.( ) %.*.` 1       $             , ; + ",
"                    q m 0.J.[.OXhXB.+X*X+.O.-.6XlXlXiX>XQ.^.A.:.%.=.4.y.I.D.4.H.,.[ _ ;.$.C C ( =._ ;   . 5 >     O < < 7 a     ",
"                      h <.v.T.{.9X#.b *X*XO.j.9XcXlX>XH.^.F.:._ =.=.%._ =.6.) ] _ ) _ ` =._ ` ) _ F O = * >       < n h 5 +     ",
"                    x m 1.c.J.).OXr.m rXzX9XQ.$XkXrXW W !. .( ` =.=.*._ 6.Q.,._ _ ` %.=.=.*.=.) h ; 4 m g   + a   z < +         ",
"                    v Q c.M.W..XOXL.s.&XyX^.].].M.O.+.r.t.d.C ;.$.=.` :.A.A.,._ _ =.%.*.*.*.%.` W g ] H + ; 7 k ; < n +         ",
"                    v X.J.T.{.OX7X1XV.+.Q.^.pXpXN.%.C.wXkXjXV ] _ ( ) A. .( D.` _ $.%.=.%.*.` _ ) A f y o + O ] n j d .         ",
"                    c | M.Y.)..XqXqXaX#XQ.9XcXaXj.a.cXcXfX<XV } ) ) ` A.A ( U._ _ _ $.*.*.*.$.) S n & = O * p ] [ j             ",
"                    ; ^ (.M.Y.[.6XqXzXcX@X~.=X1X'.-XcXcXzXuX@Xz.T _ ;.A B ( *._ _ _ _ ` =.%.=.%.h < .   ; B z W < :             ",
"                      ^ T.(.).).4XqXlXsX;X;XiXY OX!.d.xXyX:X6Xm.T O._ B B :.:._ _ $.=.=.$.$.*.] 8 8 Q { g                       ",
"                      ! 9.T.).{.4XqXuX=XH.1X6XOXE.m.l jXrXg.Z.+.T *.&.C V 6.:._ _ $.=.=.%.$.` >.<.{ { G O                       ",
"                      H <.v.Y.).5XqXuXuXg.@.!..XN.j.=XtXh w.e.r.D.O.) ( _ *.` ) $.*.` ` *.) | c.>.Z h O       ! E ; ; ;         ",
"                      ; { 9.J.). X4XqXuX>Xs.J !.7.M.j.Q m tXcXcXT T ^ $.$.B B _ $.%.| C [ 5.c.9.{ [ k   5 w q { [ Z ] c         ",
"                      ; ' 9.N.).[.OX0X<X;XsX-XB.r.L.t.e.~ rXcX*XT %XrX ._ B B %.) 5.X.....1.c.9.>.| ' G V Z ~ 8 8 , 4 O         ",
"                        q ..c.J.).XX5X0XV.t.a.+Xf ! s.%Xk W rXP.T rXcX&X( ] } | >.1.1...2.i.| } A C [ ] F v :                   ",
"                        ; W 9.c.).[..X5X>X3XeXeX#X#X9XuX$XrXsXaX*XV.s.e.V } Y.<.X.{ <.K.>.M p M { ] 7 4 O                       ",
"                          + E 1.M.(.[..XOXOX6X7X7X7X7X8XOX.X^.g.(.7.;.8.T.=Xp.{ { S.M.>.Z f     l % .                           ",
"                            : E 9.M.Y.).{. XOXOXXXXXOXOX.X[.{.OX.X[.R.).,X^.2.1.S.M.9.l m ' a % $ $ .                           ",
"                              + W ..0.J.T.W.[.[.).).W.).n.2.P.~.[.T.@X:XJ.>.Z 4.J * 1 o + ; + o                                 ",
"                                ; q W 4.c.M.J.i.i.M.c.N.b.1.{ { K.S.} 5.c.5.| +.v a X $                                         ",
"                                    + d @.6.6.{ { ......1.0...9.X.S.] d 2 P +.2 ; > . o                                         ",
"                                      9 ; z z <.{ ..X.{ X.1.1.1.0.X.Y d ; 5 + + + 5                                             ",
"                                              0 8 0 0 8 D 9.{ x / K K j a < O O O                                               ",
"                                                                                                                                ",
"                                                                                                                                ",
"                                                                                                                                ",
"                                                                                                                                ",
"                                                                                                                                ",
"                                                                                                                                ",
"                                                                                                                                ",
"                                                                                                                                ",
"                                                                                                                                "
};
