/* XPM */
static char *ce4873f3fbcf4e88c057116b58e4acc61yjnK1PLHVoqKHeG[] = {
/* columns rows colors chars-per-pixel */
"32 32 117 2 ",
"   c #0E050B",
".  c #10060E",
"X  c #12090E",
"o  c #130711",
"O  c #140913",
"+  c #190D16",
"@  c #160E19",
"#  c #1A0F19",
"$  c #16121D",
"%  c #1A121D",
"&  c #20141E",
"*  c #171522",
"=  c #191522",
"-  c #191826",
";  c #1A1B2B",
":  c #1A1F32",
">  c #221621",
",  c #241A25",
"<  c #211E2B",
"1  c #2B1E28",
"2  c #1B2136",
"3  c #1B2236",
"4  c #1B2337",
"5  c #1A2135",
"6  c #1D2134",
"7  c #1D2234",
"8  c #1D2236",
"9  c #1B2134",
"0  c #1B2439",
"q  c #1B253A",
"w  c #1C2439",
"e  c #1F2438",
"r  c #1F2538",
"t  c #1D2639",
"y  c #1C273A",
"u  c #1C263B",
"i  c #1C273B",
"p  c #1D273B",
"a  c #1C273C",
"s  c #1C273D",
"d  c #1C253A",
"f  c #1C283C",
"g  c #1D283C",
"h  c #1C283D",
"j  c #1D283D",
"k  c #1E283C",
"l  c #1D2A3F",
"z  c #1D293E",
"x  c #23202D",
"c  c #23212F",
"v  c #2A212A",
"b  c #31272F",
"n  c #222333",
"m  c #242333",
"M  c #252635",
"N  c #282533",
"B  c #2C2837",
"V  c #212639",
"C  c #20273C",
"Z  c #222539",
"A  c #20283B",
"S  c #21283B",
"D  c #212B3D",
"F  c #202A3E",
"G  c #252C3F",
"H  c #372C35",
"J  c #352F3B",
"K  c #3E353A",
"L  c #1D2B41",
"P  c #1E2A40",
"I  c #1E2B41",
"U  c #1C2B42",
"Y  c #1D2C42",
"T  c #1D2C43",
"R  c #1D2D43",
"E  c #1D2D44",
"W  c #1D2D45",
"Q  c #1C2E45",
"!  c #1D2E45",
"~  c #1E2E45",
"^  c #1F2E45",
"/  c #1D2E46",
"(  c #1E2E46",
")  c #1F2F47",
"_  c #1E2D43",
"`  c #1E3047",
"'  c #1E334B",
"]  c #1E334B",
"[  c #222D42",
"{  c #242C41",
"}  c #242D42",
"|  c #202E48",
" . c #212F49",
".. c #263046",
"X. c #2A3246",
"o. c #203049",
"O. c #21324A",
"+. c #20334B",
"@. c #253048",
"#. c #23344D",
"$. c #21344C",
"%. c #2E394C",
"&. c #393745",
"*. c #3F3841",
"=. c #313A4F",
"-. c #243952",
";. c #2B3B53",
":. c #433842",
">. c #453D49",
",. c #2B4057",
"<. c #36465F",
"1. c #314158",
"2. c #3C485D",
"3. c #404657",
"4. c #4C4A55",
"5. c #554A53",
"6. c #484F61",
/* pixels */
"o o o + o o .                       .   . O o .                 ",
"o o o > O O                           . . o o     O       X X X ",
"O + o + o .                   o     . . o O O     .         .   ",
"*.o o o O .   . O % .         %     . + o O O . .           X   ",
"$ $ , o .     + . b O             o     . O % o O         X   . ",
"$ = + o o     + o             % o o o .   o o o .             X ",
"$ @ O o O . o o o o .   . . o o , O % @ O o o o O .             ",
"$ O o o . o + o # o O O O % @ $ % * = % @ O o o O + .   K X     ",
"$ o o . O + o o o o + = = % - = = ; 6 - = @ o o > + o o %   X   ",
"$ o . . + & % o O o @ = % - ; ; ; : A 8 ; = o O o O o o &   .   ",
"= # :.v . o o o O o = = % - ; ; A 3 3 X.: ; @ O o o o o 5.o O O ",
"- $ > # O O o . > , + $ % * ; 6.r z r r : ; * O o o & O O . O   ",
"- $ o o O O . . . o # % % < ; 3.r z z [ 3 ; m $ o O o o o o .   ",
"- $ o o o O o . . . o O < ; ; r r s R R z ; ; % % + O o o o o . ",
"; $ o o . . % . . . o o * ; 8 : 3 r ( ( I 9 ; B % O + O O + O % ",
"9 * o o . . . . o . o o = ; : : { z ( o.R 3 8 - % o o O O O O $ ",
"3 ; O % o o . . o . O o * ; : 3 r I o.#.( r C ; < O o O o o o $ ",
"F V + . . . . . O . o o % ; 3 F s R ( <.( I 0 : = o o o o o O , ",
"| ..= . . . . + . . O o 4.n 8 z I ( ( ;.( ` R 3 < O o o o O o O ",
"| @.; = . . . . . . o O c ; r R o.( ( ( ( ' ( 0 : $ O o o o # % ",
"o.z ; @ . o . o . o o @ * ; 3 R ] ] -.#.' ] ' I : = + o o o o + ",
"( [ r $ o . . . . % % $ - ; 3 z -.] -.#.] ] #.z : = @ o o o % O ",
"a 2.{ * o . . o , . . % = 6 V 3 R +.] ] #.] ' I : - = # o o O o ",
"9 3 ; $ , + . o H o . @ = ; ; : 0 1.,.] -.] ' z : ; % o o o o o ",
"9 ; - $ @ o . . . . . O J % = - : I ' ' ] ] ' r : M N O o , o o ",
": - ; * $ o . . . . O o , % % % ; =.r z ( ' o.{ 3 ; % o o O o o ",
"- - c = $ O . . o . O + >.@ O % = ; : r I ( ( 0 : ; $ o o O o O ",
"- - &.- $ @ o + O . . o > o o o @ = ; r %.o.z { ; - = o o O O > ",
"- ; - - = = + 1 O . . . X O o + o @ - ; %.R z G ; = @ o o O O O ",
"- - - ; < , o o . . . o . O o O o o + - : 9 8 : - = @ o O o O % ",
"- - * $ @ o o O . . . . O . O o o o o % ; ; ; ; ; = % o o o o H ",
"- - - $ $ O o O . . . . . . O o O + O @ * * - - N $ @ o O o + o "
};
