/* XPM */
static char *_769fe9c9b254519a211b7a9cbe1ff9bwQPj4f7zgtffTlrw[] = {
/* columns rows colors chars-per-pixel */
"32 32 235 2 ",
"   c #010103",
".  c #03020A",
"X  c #08040E",
"o  c #030314",
"O  c #0B0213",
"+  c #090816",
"@  c #04031B",
"#  c #0A051C",
"$  c #0A0A1D",
"%  c #070816",
"&  c #13031B",
"*  c #040323",
"=  c #0B0424",
"-  c #0B0B23",
";  c #03032C",
":  c #0C042D",
">  c #0C0B2B",
",  c #130524",
"<  c #13042E",
"1  c #160728",
"2  c #0F1124",
"3  c #0F1128",
"4  c #040334",
"5  c #0C0533",
"6  c #0B0B33",
"7  c #04033B",
"8  c #0B043B",
"9  c #0C0B3A",
"0  c #130C35",
"q  c #1D043D",
"w  c #170939",
"e  c #121334",
"r  c #13123D",
"t  c #181737",
"y  c #24053B",
"u  c #0A0445",
"i  c #0D0B46",
"p  c #0C044A",
"a  c #0D0D4C",
"s  c #050545",
"d  c #150D43",
"f  c #14044C",
"g  c #1C064D",
"h  c #190B4A",
"j  c #180745",
"k  c #151945",
"l  c #16154A",
"z  c #0E0A51",
"x  c #1B0955",
"c  c #130C5B",
"v  c #170A55",
"b  c #1B1553",
"n  c #161B5D",
"m  c #19185A",
"M  c #0E1250",
"N  c #23094E",
"B  c #270447",
"V  c #230453",
"C  c #290555",
"Z  c #220C53",
"A  c #240D5B",
"S  c #2A0C5C",
"D  c #2C085A",
"F  c #310759",
"G  c #37085E",
"H  c #24185A",
"J  c #1E275C",
"K  c #1C2247",
"L  c #262B54",
"P  c #24255A",
"I  c #293155",
"U  c #1D0A61",
"Y  c #0C1161",
"T  c #1B1464",
"R  c #1C1865",
"E  c #240C64",
"W  c #2B0C62",
"Q  c #2A0969",
"!  c #350464",
"~  c #330A6A",
"^  c #370769",
"/  c #23126C",
"(  c #241B6C",
")  c #281769",
"_  c #2D0971",
"`  c #340C74",
"'  c #3C0B74",
"]  c #3D057B",
"[  c #360C79",
"{  c #3D0C7C",
"}  c #380575",
"|  c #281A76",
" . c #321374",
".. c #341379",
"X. c #321A7C",
"o. c #3B1A7B",
"O. c #35156F",
"+. c #1D2A7C",
"@. c #272468",
"#. c #32226C",
"$. c #2C336C",
"%. c #272B78",
"&. c #312378",
"*. c #33357D",
"=. c #410A6A",
"-. c #43066F",
";. c #430472",
":. c #44067B",
">. c #4B057C",
",. c #440A7C",
"<. c #490373",
"1. c #45197E",
"2. c #364070",
"3. c #3C1C8B",
"4. c #381784",
"5. c #3D1694",
"6. c #3D0A80",
"7. c #1F2898",
"8. c #2C2583",
"9. c #282886",
"0. c #372485",
"q. c #392987",
"w. c #3B358C",
"e. c #282794",
"r. c #382599",
"t. c #3B3F93",
"y. c #3824A5",
"u. c #2D3AB4",
"i. c #2934A0",
"p. c #4C0481",
"a. c #430C84",
"s. c #4E058B",
"d. c #4B098C",
"f. c #460889",
"g. c #52058A",
"h. c #53088E",
"j. c #570787",
"k. c #451588",
"l. c #4D0993",
"z. c #5B0A92",
"x. c #560399",
"c. c #5B049D",
"v. c #520E9C",
"b. c #5B0797",
"n. c #471895",
"m. c #55179D",
"M. c #57128D",
"N. c #6B049C",
"B. c #6C0A9F",
"V. c #650699",
"C. c #611099",
"Z. c #42308A",
"A. c #482794",
"S. c #5D06A3",
"D. c #4A17A4",
"F. c #591BA5",
"G. c #5017B2",
"H. c #6503A3",
"J. c #6B06A3",
"K. c #600FA1",
"L. c #7403A4",
"P. c #7C03AA",
"I. c #7406AA",
"U. c #6418AC",
"Y. c #731AA9",
"T. c #6B12B2",
"R. c #4B2DA4",
"E. c #4626A6",
"W. c #5628AA",
"Q. c #4C3CAB",
"!. c #4A33A3",
"~. c #583CAB",
"^. c #4837B5",
"/. c #5935B3",
"(. c #442DB4",
"). c #7220AE",
"_. c #612EB0",
"`. c #6937B8",
"'. c #763AB9",
"]. c #712BB3",
"[. c #32459B",
"{. c #3747BB",
"}. c #5854AD",
"|. c #4C42BC",
" X c #4546B8",
".X c #554AB8",
"XX c #5A57B8",
"oX c #4852AB",
"OX c #6549BA",
"+X c #6D53B9",
"@X c #5D63BD",
"#X c #566EBA",
"$X c #6175AC",
"%X c #6269B8",
"&X c #6779B9",
"*X c #7266B8",
"=X c #373FC1",
"-X c #3956C5",
";X c #484EC6",
":X c #5559C4",
">X c #6257C7",
",X c #6E4CC1",
"<X c #4D68C8",
"1X c #5A71CA",
"2X c #656CC4",
"3X c #6168C9",
"4X c #6879C2",
"5X c #7F73D0",
"6X c #7A7ACB",
"7X c #8016B0",
"8X c #8406AA",
"9X c #8859CF",
"0X c #7081BF",
"qX c #6890BD",
"wX c #5583C6",
"eX c #6A87C5",
"rX c #7A88C4",
"tX c #6E96CC",
"yX c #6CA7CC",
"uX c #77A5CE",
"iX c #67A1D3",
"pX c #77A4D3",
"aX c #77B3D7",
"sX c #7CBAE1",
"dX c #7CC0E2",
"fX c #878ED9",
"gX c #86A7D8",
"hX c #83BDE0",
"jX c #85C7E9",
"kX c #9AD2EE",
"lX c #BFE4F4",
"zX c #CAE8F4",
"xX c #DFF2FB",
"cX c #FEFFFE",
"vX c #E8F5F8",
/* pixels */
"- $ 9 r i 9 x h b Z h h 9 S i d h Z Z 0 , + @ @ * 4 *         o ",
"N N  .~ [ ( ) ..0.n.k.S.a.{ ^ { Q N g h d *.> + @ * ; *       . ",
"a.:.z.U.U.W.f.4... .A.J.m.b.b.g.v.OXR.) l m P 0 $ t k 7 ; o o 1 ",
"x.] _ b.m.J.L.U.s.z.h.l.X._ D s.k.m.#X!.` A Z j 3 $ 2.M s ;     ",
"F W W Z } } C } <.B B q V V 8 8 < ! W.$X|.{ h.j w 1 $ * s f @   ",
"- * > # O           e 2 @ o o @ ; q F E.^.(.` (.3.Z.#.: r V C . ",
"o x R *         I .   I $ .     O o < g q a.v.n.:XD.~ w * j p.: ",
"( u.{.| $ X J l $ X H y o # .   L o O # = 1 :./.:XQ.W w 5 $.s.x ",
"8.-X-X9.n l %.4.X.3.k.o.#.H > o * @ L X O , N .X$X|.! C w &.{ A.",
"h  .| / [ ..X.8.b.OX}.@X#XQ.A.=.1 1 ; ; o   * ` ~.XX1.! g [ :.c.",
"-.[ [ n.oXoX*X$X$X&X&X4XsXwX4X&XY.G & o 4 ; * u Q ^.n.>.B ^ ^ c.",
"=X>X).'.'.XX+X@XR.R.oX@X4XeXyXyXtXOXj.< : * s f B D.;.p.^ ~ g.I.",
"E.%XrXrXrX.X| / c T / n.XX2X4XtXpXrX`.=.n 4 8 q N >.<.,.^ ! x._.",
"4X&X%XW.A.W Q f.a.&.}.&XqXpXgXhXdXjXfX'.e.s @.5 Z.;.^ ,.C N.l.H.",
"OX4.O.;.W * = = ~ ~.0XyXjXzXxXzXkXjXuX6Xu.s / 5 V S ^ o.N.P.P._.",
"3.f.p.S e @ 7 Q U.2XyXjXzXcXcXcXlXjXfX2X>Xc _ u q.G F V.P.L.A.0.",
"6.v.0.e 6 8 7 ;./.&XaXjXkXvXcXvXkXpX0X}.4.r.v A q.S F.C.' ! d.L.",
"x.!.| e 9 4 u g F.2XsXtX4XpXgXgX9X,XR.3.9./ T @.A =.B.1 D f.H.L.",
"H...) - 8 5 b S ' Q.eXaX,X<X>X XI.D.].W.p.W H M.L.L.F.Q.J.h.a.' ",
"P.o.) $ 0 > 9 u ; e.|.pXiXiX9X'.1.g.V.J.H.m.b.N.v.W.k./ %.a i - ",
"I.a.a * - k > k 7 s v 3.eXyXiX;X3XOX^.r.K.E.y.4.a./.{.T h = X L ",
"J.c.E a @ 3 e e = ; ; 4 U n.;X|.:X1X<X X{.XX.Xw.t.E / q O X     ",
",.L.V.[ a 9 o * O . ; 4 4 4 R ( A ( 8.f v *.b 9 ; y .   t       ",
"f x.s.N.R M r @ ; . e   o ; ; @ * @ t O o # , . . , . . 2 o * * ",
"x _ ] a.j.Q c 0 ! ' 9 . . @ o                     @ q q u u p n ",
"i p x S.Y.B.z. .:.L.[ E a P r @ .       .     o x ' r.Q U i i n ",
"J Z p ' _.k.r.y.o.x.P.V.6.X.` H d @   r @.    ; %. .3.;.k.' g 9 ",
"w.* = g ! >.a.X.&.a.J.o.Y.9X7XP.[ M >       ; ( ( P H g j = 5 o ",
"e./ 4 * f 8 z A x m 3.H.J.).8XI.e.Y 4 u 4 7 p i.R E | @.< , = r ",
"m 9.7.+.* * 4 f ; > 2 q ] ] G.T.5.c p 8 D 3 @ 8 ; > [.e o 5 # r ",
"q 0 6 a M q @ P > * 6 - @ : C  .5.y.r.D.:.-.< = o .   . K $ .   ",
"r l $ % # * k > . o > $.o . o   O - L < O & , & .             . "
};
