/* XPM */
static char *_3c885ffd23f4df8b09a0af6dd585d373Dz2LHpfi72sY4Ei[] = {
/* columns rows colors chars-per-pixel */
"32 32 174 2 ",
"   c #010E16",
".  c #111B24",
"X  c #030D16",
"o  c #031018",
"O  c #08151D",
"+  c #07141C",
"@  c #020F17",
"#  c #0F1C24",
"$  c #010F16",
"%  c #020E16",
"&  c #030E16",
"*  c #101C24",
"=  c #030E15",
"-  c #062929",
";  c #05574D",
":  c #05584D",
">  c #082C2D",
",  c #020F16",
"<  c #074742",
"1  c #0AC29E",
"2  c #11F7C7",
"3  c #20F7CA",
"4  c #0CC49F",
"5  c #072728",
"6  c #041B1E",
"7  c #09C39E",
"8  c #00FDC7",
"9  c #14F9CA",
"0  c #6FF8DB",
"q  c #44F8D2",
"w  c #0FC19D",
"e  c #05141B",
"r  c #010F15",
"t  c #07403B",
"y  c #06E7B9",
"u  c #02FCC7",
"i  c #10FAC7",
"p  c #B3F8EB",
"a  c #28F6CD",
"s  c #0A3937",
"d  c #020E15",
"f  c #05121A",
"g  c #030E17",
"h  c #050F16",
"j  c #22685D",
"k  c #10EEC1",
"l  c #05FBC7",
"z  c #03FCC7",
"x  c #79F8DE",
"c  c #25F5CB",
"v  c #285B56",
"b  c #071218",
"n  c #121C24",
"m  c #081418",
"M  c #0C9F5B",
"N  c #3DA877",
"B  c #4CA291",
"V  c #29CDAC",
"C  c #0CF7C5",
"Z  c #07FAC7",
"A  c #0DF7C6",
"S  c #3ABCA6",
"D  c #66837B",
"F  c #215A47",
"G  c #362F2F",
"H  c #26A862",
"J  c #07E87B",
"K  c #0BD874",
"L  c #25AF68",
"P  c #46A777",
"I  c #5A8A7B",
"U  c #559784",
"Y  c #47A682",
"T  c #42AE77",
"R  c #29AB6D",
"E  c #32B072",
"W  c #2C5F46",
"Q  c #12191E",
"!  c #252425",
"~  c #357851",
"^  c #0AE67B",
"/  c #0DE179",
"(  c #09B959",
")  c #07F376",
"_  c #0CEE7C",
"`  c #10EB7B",
"'  c #05F879",
"]  c #04FA79",
"[  c #1CE985",
"{  c #1E9156",
"}  c #48614A",
"|  c #3A3633",
" . c #081218",
".. c #333431",
"X. c #2AA163",
"o. c #30C87A",
"O. c #0CAD57",
"+. c #07E16E",
"@. c #02F276",
"#. c #06EC74",
"$. c #05E66F",
"%. c #09CE66",
"&. c #2CC77D",
"*. c #357552",
"=. c #303230",
"-. c #141A1F",
";. c #071117",
":. c #2B2D29",
">. c #5E6148",
",. c #377549",
"<. c #1E8246",
"1. c #188B4A",
"2. c #198949",
"3. c #247B45",
"4. c #366C43",
"5. c #5A523C",
"6. c #1B2122",
"7. c #030F17",
"8. c #010E17",
"9. c #081016",
"0. c #8B5534",
"q. c #CE924F",
"w. c #B9974F",
"e. c #B4A265",
"r. c #B3A063",
"t. c #B4975B",
"y. c #CCBE59",
"u. c #907E33",
"i. c #2D2C1C",
"p. c #C1A12B",
"a. c #EEE33C",
"s. c #ECEE51",
"d. c #EFE74B",
"f. c #EDE445",
"g. c #D2CB37",
"h. c #504F1E",
"j. c #423C17",
"k. c #AE921E",
"l. c #B39E25",
"z. c #AF931F",
"x. c #99851F",
"c. c #514C1D",
"v. c #030F15",
"b. c #020D19",
"n. c #0D1619",
"m. c #0D1517",
"M. c #040F14",
"N. c #050F14",
"B. c #030F16",
"V. c #020E18",
"C. c #020D16",
"Z. c #0D1720",
"A. c #09141D",
"S. c #111C25",
"D. c #152128",
"F. c #232E35",
"G. c #212B32",
"H. c #252F36",
"J. c #18242A",
"K. c #384146",
"L. c #7D858A",
"P. c #767A7F",
"I. c #777B7F",
"U. c #83878B",
"Y. c #808488",
"T. c #5F686B",
"R. c #0B1820",
"E. c #1C262C",
"W. c #2A343B",
"Q. c #232D34",
"!. c #222B34",
"~. c #242D36",
"^. c #232D33",
"/. c #06131B",
/* pixels */
"            . X                                                 ",
"                                                                ",
"                                                                ",
"                              o O                               ",
"                              o +                               ",
"                                                                ",
"                                                                ",
"                                                                ",
"                                                            o   ",
"      @ #                 $ % % &                           *   ",
"      @ +               = - ; : > =                             ",
"                      , < 1 2 3 4 5 %                           ",
"                      6 7 8 9 0 q w e                           ",
"                  % r t y u u i p a s d                         ",
"                f g h j k l 8 z x c v b d                       ",
"              @ n m M N B V C Z A S D F & %                     ",
"                G H J K L P I U Y T R E W Q                     ",
"                ! ~ ^ / ( ) _ ` ' ] [ { } |                     ",
"                 ...X.o.O.+.@.#.$.%.&.*.=.-.                    ",
"                  ;.:.>.,.<.1.2.3.4.5.6.7.8.                    ",
"                    9.0.q.w.e.r.t.y.u.=                         ",
"                      i.p.a.s.d.f.g.h.%                         ",
"                      d j.k.l.z.x.c.v.                          ",
"                        b.n.m.M.N.B.                            ",
"                          % r r V.%                             ",
"        @ @                                                     ",
"      C.Z.A.                                                    ",
"      C.X X                                                     ",
"        % %                       S.C.                          ",
"D.F.G.F.H.F.J.f                   g C.                          ",
"K.L.P.I.U.Y.T.R.                                                ",
"E.W.Q.!.~.!.^./.                                                "
};
